<svg width="461" height="323" viewBox="0 0 461 323" fill="none" xmlns="http://www.w3.org/2000/svg">
<g clip-path="url(#clip0_649_897)">
<path d="M31 196.008C31 196.395 31.3115 196.706 31.6994 196.706H460.301C460.689 196.706 461 196.395 461 196.008C461 195.62 460.689 195.31 460.301 195.31H31.6994C31.3115 195.31 31 195.62 31 196.008Z" fill="#3F3D56"/>
<path d="M305.445 47.8712L307.694 76.5866L340.286 62.9985L321.901 33.7925L305.445 47.8712Z" fill="#A0616A"/>
<path d="M304.469 56.6197C317.886 56.6197 328.763 45.7627 328.763 32.3699C328.763 18.9771 317.886 8.12012 304.469 8.12012C291.051 8.12012 280.174 18.9771 280.174 32.3699C280.174 45.7627 291.051 56.6197 304.469 56.6197Z" fill="#A0616A"/>
<path d="M259.017 258.466L263.131 295.298L234.334 291.316L243.737 257.292L259.017 258.466Z" fill="#A0616A"/>
<path d="M371.267 263.745L375.381 300.577L346.584 296.595L355.987 262.572L371.267 263.745Z" fill="#A0616A"/>
<path d="M302.8 152.582C302.407 152.582 270.979 154.157 250.215 155.2C240.387 155.693 232.906 164.184 233.669 173.976L241.092 269.318L262.249 269.904L262.765 193.058L304.564 195.404L302.8 152.582Z" fill="#2F2E41"/>
<path d="M395.069 151.995C395.069 151.995 400.358 192.471 396.245 196.578C392.131 200.684 263.131 193.351 263.131 193.351C263.131 193.351 291.431 152.56 296.528 151.398C301.625 150.235 382.728 146.129 382.728 146.129L395.069 151.995Z" fill="#2F2E41"/>
<path d="M227.953 101.034C223.04 94.1765 222.603 86.0875 226.976 82.9676C231.349 79.8476 238.875 82.8783 243.789 89.7393C245.789 92.4532 247.109 95.6057 247.639 98.9332L268.086 128.253L256.45 136.294L235.425 107.648C232.441 106.07 229.879 103.803 227.953 101.034Z" fill="#A0616A"/>
<path d="M304.27 66.0562L334.243 53.7373L390.661 140.556C390.661 140.556 351.286 149.355 337.769 151.115C324.252 152.875 308.972 145.836 308.972 145.836L304.27 66.0562Z" fill="#3FB37F"/>
<path d="M340.707 80.7213L329.834 46.8687L343.939 57.5501C343.939 57.5501 383.903 83.9477 383.903 95.0934C383.903 106.239 396.244 140.263 396.244 140.263C396.244 140.263 410.055 151.702 405.353 162.261C400.652 172.82 411.524 171.353 412.7 178.979C413.875 186.605 395.95 196.871 395.95 196.871C395.95 196.871 391.543 153.755 377.438 153.755C363.333 153.755 340.707 80.7213 340.707 80.7213Z" fill="#3F3D56"/>
<path d="M306.376 65.1904L291.634 71.0423C291.634 71.0423 293.985 112.105 296.336 115.625C298.687 119.145 306.914 137.916 306.914 137.916V144.034C306.914 144.034 290.459 149.062 291.047 151.995C291.634 154.928 329.835 163.141 329.835 163.141C329.835 163.141 322.195 139.676 317.493 132.05C312.791 124.424 306.376 65.1904 306.376 65.1904Z" fill="#3F3D56"/>
<path d="M296.924 71.0427C296.924 71.0427 279.88 68.6962 276.942 88.6411C274.003 108.586 275.871 111.226 275.871 111.226L271.065 122.665L255.197 105.066L239.917 115.039C239.917 115.039 267.539 159.621 278.705 158.448C289.871 157.275 306.327 125.011 306.327 125.011L296.924 71.0427Z" fill="#3F3D56"/>
<path d="M382.045 158.47L373.324 281.637L350.698 280.757C350.698 280.757 345.703 164.314 345.703 162.554C345.703 160.794 348.053 150.822 362.746 150.235C377.438 149.648 382.045 158.47 382.045 158.47Z" fill="#2F2E41"/>
<path d="M349.229 283.983C349.229 283.983 360.982 280.464 362.746 282.81C364.509 285.156 374.5 286.33 374.5 286.33L377.438 315.074C377.438 315.074 369.21 320.94 368.035 322.113C366.859 323.286 335.712 324.46 335.124 317.42C334.536 310.381 343.352 301.582 343.352 301.582L349.229 283.983Z" fill="#2F2E41"/>
<path d="M262.837 275.771C262.837 275.771 266.364 272.838 267.539 281.05C268.714 289.263 272.828 302.755 266.951 304.515C261.074 306.275 202.305 306.861 202.305 301.582V296.302L207.594 292.196L218.175 290.513C218.175 290.513 238.742 271.665 241.093 271.665C243.443 271.665 251.084 279.291 251.084 279.291L262.837 275.771Z" fill="#2F2E41"/>
<path d="M328.366 45.5247C328.366 45.5247 316.612 31.446 311.91 32.6192C307.209 33.7925 310.147 35.5523 310.147 35.5523L298.393 22.6468C298.393 22.6468 288.99 19.1271 280.175 30.2728C280.175 30.2728 274.885 20.887 280.175 15.6074C285.464 10.3279 287.227 10.9145 288.402 7.98146C289.578 5.04839 297.805 2.70193 297.805 2.70193C297.805 2.70193 297.333 -1.51984 299.92 0.591046C302.507 2.70193 308.967 2.70193 308.967 2.70193C308.967 2.70193 309.004 0.35548 311.632 2.70193C314.261 5.04839 317.199 3.87516 317.199 3.87516C317.199 3.87516 317.199 7.93527 319.256 7.95836C321.313 7.98146 324.839 5.04839 325.427 7.39484C326.015 9.7413 330.129 10.9145 330.716 17.9539C331.304 24.9933 328.366 45.5247 328.366 45.5247Z" fill="#2F2E41"/>
<path d="M232.577 104.915L165.441 151.156C163.124 152.752 159.939 152.169 158.34 149.856L139.439 122.515C137.84 120.202 138.424 117.023 140.741 115.427L207.877 69.186C210.194 67.5904 213.379 68.1734 214.978 70.4859L233.879 97.8273C235.478 100.14 234.894 103.319 232.577 104.915Z" fill="white"/>
<path d="M214.855 70.5712L233.756 97.9124C235.311 100.162 234.745 103.24 232.492 104.792L199.543 127.486C190.854 125.116 182.925 119.792 177.409 111.814C173.796 106.587 171.618 100.802 170.788 94.9141L207.962 69.3095C210.216 67.7571 213.299 68.3216 214.855 70.5712Z" fill="#E6E6E6"/>
<path d="M162.55 152.642C160.741 152.642 158.96 151.785 157.856 150.19L138.954 122.848C138.092 121.6 137.769 120.091 138.044 118.596C138.318 117.102 139.158 115.805 140.408 114.944L207.543 68.7031C210.128 66.9244 213.679 67.5751 215.462 70.1525L234.363 97.4942C235.225 98.7419 235.549 100.251 235.274 101.746C235 103.24 234.16 104.538 232.911 105.398L165.774 151.639C164.79 152.317 163.664 152.642 162.55 152.642ZM210.769 68.8727C209.886 68.8727 208.993 69.131 208.211 69.669L141.075 115.91C140.083 116.592 139.418 117.622 139.2 118.808C138.981 119.994 139.238 121.192 139.922 122.181L158.824 149.523C160.238 151.568 163.056 152.085 165.106 150.673L232.243 104.432C233.234 103.75 233.9 102.72 234.118 101.534C234.336 100.348 234.08 99.1497 233.396 98.161L214.494 70.8193C213.619 69.5532 212.205 68.8727 210.769 68.8727Z" fill="#3F3D56"/>
<path d="M163.036 138.991C161.335 140.162 160.906 142.498 162.08 144.196C163.254 145.894 165.593 146.323 167.295 145.151L174.207 140.39C175.908 139.218 176.337 136.883 175.163 135.184C173.989 133.486 171.65 133.058 169.948 134.23L163.036 138.991Z" fill="#3FB37F"/>
<path d="M167.721 100.845C165.037 102.694 164.36 106.379 166.212 109.059C168.065 111.738 171.756 112.414 174.44 110.565L185.192 103.159C187.877 101.31 188.554 97.6258 186.702 94.9462C184.849 92.2665 181.158 91.5907 178.473 93.4397L167.721 100.845Z" fill="#3FB37F"/>
<path d="M230.969 108.998H149.401C146.586 108.998 144.296 106.712 144.296 103.903V70.6836C144.296 67.874 146.586 65.5884 149.401 65.5884H230.969C233.784 65.5884 236.074 67.874 236.074 70.6836V103.903C236.074 106.712 233.784 108.998 230.969 108.998Z" fill="white"/>
<path d="M235.924 70.684V103.903C235.924 106.636 233.707 108.848 230.969 108.848H190.937C185.134 101.972 181.637 93.0952 181.637 83.4014C181.637 77.0517 183.136 71.0551 185.803 65.7383H230.969C233.707 65.7383 235.924 67.9507 235.924 70.684Z" fill="#E6E6E6"/>
<path d="M230.969 109.585H149.401C146.262 109.585 143.708 107.036 143.708 103.903V70.6836C143.708 67.5506 146.262 65.002 149.401 65.002H230.969C234.108 65.002 236.662 67.5506 236.662 70.6836V103.903C236.662 107.036 234.108 109.585 230.969 109.585ZM149.401 66.1752C146.91 66.1752 144.883 68.1974 144.883 70.6836V103.903C144.883 106.389 146.91 108.411 149.401 108.411H230.969C233.46 108.411 235.486 106.389 235.486 103.903V70.6836C235.486 68.1974 233.46 66.1752 230.969 66.1752H149.401Z" fill="#3F3D56"/>
<path d="M154.343 97.6216C152.276 97.6216 150.594 99.3003 150.594 101.364C150.594 103.427 152.276 105.106 154.343 105.106H162.741C164.809 105.106 166.49 103.427 166.49 101.364C166.49 99.3003 164.809 97.6216 162.741 97.6216H154.343Z" fill="#3FB37F"/>
<path d="M179.904 68.8818C176.642 68.8818 173.989 71.5306 173.989 74.7863C173.989 78.042 176.642 80.6905 179.904 80.6905H192.968C196.229 80.6905 198.883 78.042 198.883 74.7863C198.883 71.5306 196.229 68.8818 192.968 68.8818H179.904Z" fill="#3FB37F"/>
<path d="M299.142 223.974H217.574C214.759 223.974 212.469 221.688 212.469 218.879V185.66C212.469 182.85 214.759 180.564 217.574 180.564H299.142C301.957 180.564 304.247 182.85 304.247 185.66V218.879C304.247 221.688 301.957 223.974 299.142 223.974Z" fill="white"/>
<path d="M304.097 185.66V218.879C304.097 221.612 301.88 223.824 299.142 223.824H259.11C253.307 216.948 249.81 208.071 249.81 198.377C249.81 192.028 251.309 186.031 253.976 180.714H299.142C301.88 180.714 304.097 182.927 304.097 185.66Z" fill="#E6E6E6"/>
<path d="M299.142 224.561H217.574C214.435 224.561 211.881 222.012 211.881 218.879V185.66C211.881 182.527 214.435 179.978 217.574 179.978H299.142C302.281 179.978 304.834 182.527 304.834 185.66V218.879C304.834 222.012 302.281 224.561 299.142 224.561ZM217.574 181.151C215.083 181.151 213.056 183.173 213.056 185.66V218.879C213.056 221.365 215.083 223.387 217.574 223.387H299.142C301.633 223.387 303.659 221.365 303.659 218.879V185.66C303.659 183.173 301.633 181.151 299.142 181.151H217.574Z" fill="#3F3D56"/>
<path d="M222.516 212.598C220.449 212.598 218.767 214.276 218.767 216.34C218.767 218.403 220.449 220.082 222.516 220.082H230.914C232.981 220.082 234.663 218.403 234.663 216.34C234.663 214.276 232.981 212.598 230.914 212.598H222.516Z" fill="#3FB37F"/>
<path d="M248.077 183.858C244.815 183.858 242.162 186.507 242.162 189.762C242.162 193.018 244.815 195.667 248.077 195.667H261.14C264.402 195.667 267.056 193.018 267.056 189.762C267.056 186.507 264.402 183.858 261.14 183.858H248.077Z" fill="#3FB37F"/>
<path d="M304.675 194.179C297.183 198.073 289.098 197.371 286.616 192.611C284.135 187.852 288.196 180.839 295.691 176.945C298.663 175.349 301.975 174.486 305.35 174.429L337.301 158.332L343.646 170.959L312.282 187.722C310.299 190.45 307.691 192.664 304.675 194.179Z" fill="#A0616A"/>
<path d="M341.001 56.9639C341.001 56.9639 373.912 55.2041 380.964 72.8025C388.017 90.4009 393.894 147.889 393.894 147.889L322.195 186.825L309.853 167.834L358.044 130.291L341.001 56.9639Z" fill="#3F3D56"/>
</g>
<path d="M110.612 302.121L119.441 299.411L113.192 264.065L100.161 268.065L110.612 302.121Z" fill="#A0616A"/>
<path d="M138.985 302.384L111.236 310.9L107.946 300.179L124.973 294.953C127.817 294.081 130.89 294.373 133.518 295.767C136.146 297.161 138.112 299.541 138.985 302.384Z" fill="#2F2E41"/>
<path d="M32.2662 302.324H41.502L45.8954 266.7L32.2646 266.701L32.2662 302.324Z" fill="#A0616A"/>
<path d="M59.314 310.899L30.2876 310.9L30.2871 299.686L48.0987 299.685C51.0731 299.685 53.9256 300.866 56.0289 302.969C58.1321 305.072 59.3138 307.925 59.314 310.899Z" fill="#2F2E41"/>
<path d="M34.6173 183.993C33.8586 183.328 33.2549 182.505 32.8488 181.581C32.4427 180.657 32.2441 179.656 32.2669 178.647C32.2897 177.638 32.5335 176.646 32.981 175.742C33.4285 174.838 34.0688 174.042 34.8569 173.412L42.0176 83.2427L56.5801 86.881L44.9204 174.839C45.8912 176.233 46.317 177.935 46.1169 179.622C45.9169 181.309 45.1049 182.864 43.8349 183.992C42.565 185.121 40.9252 185.744 39.2263 185.744C37.5275 185.744 35.8875 185.121 34.6173 183.993Z" fill="#A0616A"/>
<path d="M69.0529 49.0227C79.2715 49.0227 87.5554 40.7388 87.5554 30.5201C87.5554 20.3015 79.2715 12.0176 69.0529 12.0176C58.8342 12.0176 50.5503 20.3015 50.5503 30.5201C50.5503 40.7388 58.8342 49.0227 69.0529 49.0227Z" fill="#A0616A"/>
<path d="M43.7811 85.0305C39.3841 78.9941 39.2486 70.6802 43.9851 64.9063C47.0761 61.1383 52.2465 58.123 60.8788 58.123C83.8876 58.123 92.6152 76.3715 92.6152 76.3715C92.6152 76.3715 102.136 93.8265 96.5822 109.695C91.0283 125.563 91.0283 127.15 91.0283 127.15L54.5315 123.976C54.5315 123.976 60.6885 108.241 43.7811 85.0305Z" fill="#CCCCCC"/>
<path d="M32.5264 100.827L40.3888 75.1038C40.9154 73.3814 41.8138 71.7956 43.0207 70.4586C44.2275 69.1216 45.7132 68.066 47.3729 67.3663C49.0325 66.6667 50.8256 66.34 52.6253 66.4096C54.4251 66.4791 56.1876 66.943 57.7884 67.7686C60.5656 69.207 62.6919 71.6476 63.7362 74.5957C64.7805 77.5438 64.6646 80.7787 63.412 83.6445L53.4163 106.409L32.5264 100.827Z" fill="#CCCCCC"/>
<path d="M90.2351 123.183L121.178 283.452L104.516 288.212L64.0526 182.689L45.8041 290.593L28.3491 292.973C28.3491 292.973 20.6925 150.203 54.5316 123.977L90.2351 123.183Z" fill="#2F2E41"/>
<path d="M131.824 106.548C131.556 106.867 131.313 107.207 131.098 107.564L93.7822 109.374L86.5967 87.437L74.1201 93.3669L85.8629 126.04L132.013 117.014C133.098 118.198 134.517 119.024 136.082 119.382C137.648 119.739 139.285 119.612 140.776 119.017C142.267 118.422 143.541 117.386 144.43 116.049C145.318 114.712 145.779 113.136 145.749 111.53C145.72 109.925 145.203 108.367 144.267 107.062C143.33 105.758 142.019 104.77 140.508 104.229C138.996 103.688 137.355 103.62 135.804 104.035C134.253 104.449 132.864 105.325 131.824 106.548Z" fill="#A0616A"/>
<path d="M68.4979 78.6768C68.2874 76.888 68.4723 75.0748 69.0397 73.3653C69.6071 71.6559 70.543 70.0919 71.7813 68.784C73.0196 67.4761 74.5301 66.4561 76.206 65.7962C77.8818 65.1362 79.6822 64.8525 81.4799 64.9649C84.6011 65.1653 87.5293 66.5451 89.6707 68.8246C91.8122 71.1041 93.0066 74.1127 93.0118 77.2403V102.102L71.6405 105.39L68.4979 78.6768Z" fill="#CCCCCC"/>
<path d="M73.1217 49.1909C70.3446 49.1788 68.2023 46.255 68.3268 43.4807C68.4513 40.7064 70.3146 38.2655 72.5595 36.6307C74.8044 34.9959 77.4371 34.0002 79.9406 32.7982C82.4441 31.5963 84.9257 30.0971 86.4714 27.7899C87.4052 26.2799 87.9626 24.5676 88.0968 22.7973C88.2309 21.0269 87.9379 19.2502 87.2423 17.6167C85.8039 14.3495 83.3341 11.644 80.2113 9.91447C75.5648 7.22089 70.0817 6.35397 64.8308 7.48268C59.6415 8.62114 51.9079 11.773 48.8675 16.1297L45.6974 24.7613C42.4672 28.6456 44.9682 34.414 46.9538 39.0593C48.9395 43.7046 53.1674 47.1996 57.9382 48.8611C62.7787 50.4167 67.9602 50.572 72.8851 49.3093" fill="#2F2E41"/>
<path d="M56.2122 20.4434C54.8495 18.2593 52.4874 16.8702 50.0455 16.0549C47.2166 15.1105 44.2079 14.8318 41.2536 15.2404C38.2993 15.649 35.4792 16.734 33.0129 18.4109C30.5466 20.0878 28.5006 22.3112 27.0342 24.9082C25.5678 27.5052 24.7206 30.4057 24.5585 33.3837C24.2997 38.1405 25.7892 42.7921 26.6644 47.4748C27.5396 52.1576 27.7137 57.3296 25.1318 61.3331C23.1652 64.3824 19.8857 66.3023 16.6487 67.9417C13.9508 69.308 11.0326 70.5902 8.02069 70.318C5.00882 70.0458 1.98167 67.6602 2.06159 64.6371C1.05331 66.8047 0.372515 69.11 0.0414561 71.4776C-0.170441 73.855 0.415545 76.4203 2.1327 78.0782C4.62856 80.4878 8.58312 80.3115 12.0131 79.7916C19.4387 78.666 26.9578 76.5557 32.8243 71.8663C38.6907 67.1769 42.5834 59.4552 41.0385 52.1055C40.3931 49.0353 38.8765 46.2325 37.6509 43.3445C36.4254 40.4565 35.4686 37.2975 36.0316 34.2111C36.3649 32.6211 37.043 31.1235 38.0183 29.8242C38.9936 28.5249 40.2422 27.4555 41.676 26.6916C44.5756 25.1839 47.8934 24.6808 51.1097 25.261C53.2183 25.607 55.8512 26.1443 57.1018 24.4117C57.4332 23.8628 57.6025 23.2313 57.59 22.5902C57.5775 21.9492 57.3838 21.3248 57.0312 20.7892C56.3097 19.7299 55.3908 18.8194 54.3248 18.1077" fill="#2F2E41"/>
<defs>
<clipPath id="clip0_649_897">
<rect width="430" height="323" fill="white" transform="translate(31)"/>
</clipPath>
</defs>
</svg>
