<svg width="161" height="161" viewBox="0 0 161 161" fill="none" xmlns="http://www.w3.org/2000/svg">
<path d="M81.8081 45.6172C62.4881 45.6172 46.9249 61.1804 46.9249 80.5004C46.9249 99.8204 62.4881 115.384 81.8081 115.384C101.128 115.384 116.691 99.8204 116.691 80.5004C116.691 61.1804 101.128 45.6172 81.8081 45.6172ZM81.8081 110.017C65.4399 110.017 52.2914 96.869 52.2914 80.5004C52.2914 64.1322 65.4396 50.9836 81.8081 50.9836C98.1767 50.9836 111.325 64.1319 111.325 80.5004C111.325 96.869 98.1764 110.017 81.8081 110.017Z" fill="#3FB37F"/>
<path d="M81.0031 86.6719L70.2699 75.9387C69.1967 74.8655 67.5867 74.8655 66.5131 75.9387C65.4396 77.0119 65.4399 78.6219 66.5131 79.6955L77.2464 90.4287C78.3196 91.5019 79.9296 91.5019 81.0031 90.4287C82.0767 89.3555 82.0764 87.7452 81.0031 86.6719Z" fill="#3FB37F"/>
<path d="M96.8349 67.6197C95.7617 66.8147 94.1517 66.8147 93.0781 67.888L76.9781 86.6712C75.9049 87.7444 76.1731 89.623 77.2464 90.428C78.3196 91.5012 80.1981 91.233 81.0031 90.1597L97.1031 71.3765C98.1764 70.303 97.9081 68.4247 96.8349 67.6197Z" fill="#3FB37F"/>
<path d="M116.691 0H46.9249C41.0217 0 36.1917 4.83 36.1917 10.7332V150.266C36.1917 156.17 41.0217 161 46.9249 161H116.692C122.595 161 127.425 156.17 127.425 150.266V10.7332C127.425 4.83 122.595 0 116.691 0ZM122.058 150.267C122.058 153.219 119.643 155.634 116.691 155.634H46.9249C43.9731 155.634 41.5581 153.219 41.5581 150.267V10.7332C41.5581 7.78146 43.9731 5.36646 46.9249 5.36646H116.692C119.643 5.36646 122.058 7.78146 122.058 10.7332V150.267H122.058Z" fill="#3FB37F"/>
<path d="M36.1914 16.0996V139.533H127.425V16.0996H36.1914ZM122.058 134.166H41.5581V21.4664H122.058V134.166Z" fill="#3FB37F"/>
<path d="M92.5414 8.0498H79.1246C77.5146 8.0498 76.4414 9.12303 76.4414 10.733C76.4414 12.343 77.5146 13.4163 79.1246 13.4163H92.5414C94.1514 13.4163 95.2246 12.343 95.2246 10.733C95.2249 9.12303 94.1514 8.0498 92.5414 8.0498Z" fill="#3FB37F"/>
<path d="M71.0749 8.0498H68.3917C66.7817 8.0498 65.7084 9.12303 65.7084 10.733C65.7084 12.343 66.7817 13.4163 68.3917 13.4163H71.0749C72.6849 13.4163 73.7581 12.343 73.7581 10.733C73.7581 9.12303 72.6849 8.0498 71.0749 8.0498Z" fill="#3FB37F"/>
<path d="M36.1914 24.1504C34.5814 24.1504 33.5081 25.2236 33.5081 26.8336V29.5168C33.5081 31.1268 34.5814 32.2001 36.1914 32.2001C37.8014 32.2001 38.8746 31.1268 38.8746 29.5168V26.8336C38.8749 25.2236 37.8014 24.1504 36.1914 24.1504Z" fill="#3FB37F"/>
<path d="M36.1914 34.8828C34.5814 34.8828 33.5081 35.956 33.5081 37.566V40.2496C33.5081 41.8596 34.5814 42.9328 36.1914 42.9328C37.8014 42.9328 38.8746 41.8596 38.8746 40.2496V37.5664C38.8749 35.9564 37.8014 34.8828 36.1914 34.8828Z" fill="#3FB37F"/>
<path d="M36.1914 45.6172C34.5814 45.6172 33.5081 46.6904 33.5081 48.3004V50.9836C33.5081 52.5936 34.5814 53.6669 36.1914 53.6669C37.8014 53.6669 38.8746 52.5936 38.8746 50.9836V48.3004C38.8749 46.6904 37.8014 45.6172 36.1914 45.6172Z" fill="#3FB37F"/>
<path d="M81.8081 136.85C75.9049 136.85 71.0749 141.68 71.0749 147.583C71.0749 153.486 75.9049 158.316 81.8081 158.316C87.7114 158.316 92.5414 153.486 92.5414 147.583C92.5414 141.68 87.7114 136.85 81.8081 136.85ZM81.8081 152.95C78.8564 152.95 76.4414 150.535 76.4414 147.583C76.4414 144.631 78.8564 142.216 81.8081 142.216C84.7599 142.216 87.1749 144.631 87.1749 147.583C87.1749 150.535 84.7599 152.95 81.8081 152.95Z" fill="#3FB37F"/>
<path d="M25.4581 10.7336C20.8964 10.7336 17.4081 7.24533 17.4081 2.68355C17.4081 -0.804674 12.0414 -0.804674 12.0414 2.68355C12.0414 7.24533 8.55313 10.7336 3.99135 10.7336C0.503126 10.7336 0.503126 16.1003 3.99135 16.1003C8.55313 16.1003 12.0414 19.5886 12.0414 24.1503C12.0414 27.6386 17.4081 27.6386 17.4081 24.1503C17.4081 19.5886 20.8964 16.1003 25.4581 16.1003C28.9464 16.1003 28.9464 10.7336 25.4581 10.7336ZM14.7249 16.1003C13.9199 15.0271 13.1149 14.2221 12.0417 13.4171C13.1149 12.6121 13.9199 11.8071 14.7249 10.7339C15.5299 11.8071 16.3349 12.6121 17.4081 13.4171C16.3349 14.2221 15.5299 15.0271 14.7249 16.1003Z" fill="#3FB37F"/>
<path d="M146.208 37.5664C144.598 37.5664 143.525 38.6396 143.525 40.2496V50.9829C143.525 52.5929 144.598 53.6661 146.208 53.6661C147.818 53.6661 148.891 52.5929 148.891 50.9829V40.2496C148.891 38.6396 147.818 37.5664 146.208 37.5664Z" fill="#3FB37F"/>
<path d="M151.575 42.9336H140.842C139.232 42.9336 138.158 44.0068 138.158 45.6168C138.158 47.2268 139.232 48.3 140.842 48.3H151.575C153.185 48.3 154.258 47.2268 154.258 45.6168C154.258 44.0071 153.185 42.9336 151.575 42.9336Z" fill="#3FB37F"/>
<path d="M20.0914 115.383C18.4814 115.383 17.4081 116.456 17.4081 118.066C17.4081 119.676 18.4814 120.75 20.0914 120.75C21.7014 120.75 22.7746 119.676 22.7746 118.066C22.7746 116.456 21.7014 115.383 20.0914 115.383Z" fill="#3FB37F"/>
<path d="M6.6749 67.083C5.0649 67.083 3.99167 68.1562 3.99167 69.7662C3.99167 71.3762 5.0649 72.4495 6.6749 72.4495C8.2849 72.4495 9.35813 71.3762 9.35813 69.7662C9.35813 68.1562 8.2849 67.083 6.6749 67.083Z" fill="#3FB37F"/>
<path d="M138.158 93.917C136.548 93.917 135.475 94.9902 135.475 96.6002C135.475 98.2102 136.548 99.2835 138.158 99.2835C139.768 99.2835 140.841 98.2102 140.841 96.6002C140.841 94.9902 139.768 93.917 138.158 93.917Z" fill="#3FB37F"/>
<path d="M156.941 150.267C155.331 150.267 154.258 151.34 154.258 152.95C154.258 154.56 155.331 155.633 156.941 155.633C158.551 155.633 159.625 154.56 159.625 152.95C159.625 151.34 158.551 150.267 156.941 150.267Z" fill="#3FB37F"/>
</svg>
