<svg width="531" height="418" viewBox="0 0 531 418" fill="none" xmlns="http://www.w3.org/2000/svg">
<g clip-path="url(#clip0_283_819)">
<g filter="url(#filter0_d_283_819)">
<path d="M261.322 93.9716H259.126V33.8163C259.126 24.5824 255.457 15.7268 248.927 9.19747C242.397 2.66815 233.541 -0.999988 224.306 -1H96.8464C92.2738 -1.00002 87.746 -0.0994823 83.5215 1.65018C79.297 3.39985 75.4585 5.96438 72.2252 9.19736C68.9919 12.4303 66.4271 16.2684 64.6772 20.4925C62.9273 24.7166 62.0267 29.244 62.0267 33.8161V363.833C62.0267 368.405 62.9273 372.932 64.6771 377.157C66.427 381.381 68.9918 385.219 72.2251 388.452C75.4584 391.685 79.2968 394.249 83.5213 395.999C87.7459 397.749 92.2737 398.649 96.8463 398.649H224.306C228.878 398.649 233.406 397.749 237.631 395.999C241.855 394.249 245.694 391.685 248.927 388.452C252.161 385.219 254.725 381.381 256.475 377.157C258.225 372.933 259.126 368.405 259.126 363.833V136.791H261.322V93.9716Z" fill="#3F3D56"/>
</g>
<path d="M225.449 9.88135H208.811C209.576 11.757 209.868 13.792 209.662 15.8071C209.455 17.8222 208.756 19.7556 207.626 21.4369C206.496 23.1181 204.969 24.4958 203.182 25.4483C201.394 26.4009 199.399 26.8992 197.373 26.8994H124.353C122.327 26.8992 120.332 26.4009 118.544 25.4483C116.757 24.4958 115.23 23.1181 114.1 21.4369C112.97 19.7556 112.271 17.8222 112.064 15.8071C111.858 13.792 112.15 11.757 112.915 9.88135H97.3753C90.4789 9.88134 83.8649 12.6206 78.9884 17.4967C74.1119 22.3727 71.3723 28.986 71.3723 35.8817V365.414C71.3723 368.829 72.0449 372.21 73.3517 375.364C74.6584 378.519 76.5738 381.385 78.9884 383.799C81.403 386.214 84.2695 388.129 87.4243 389.435C90.5792 390.742 93.9605 391.415 97.3752 391.415H225.449C232.345 391.415 238.959 388.675 243.836 383.799C248.712 378.923 251.452 372.31 251.452 365.414V35.8817C251.452 32.4673 250.779 29.0863 249.472 25.9318C248.166 22.7773 246.25 19.911 243.836 17.4967C241.421 15.0823 238.554 13.1671 235.4 11.8605C232.245 10.5539 228.864 9.88135 225.449 9.88135H225.449ZM222.653 162.754C222.648 164.538 221.937 166.248 220.675 167.51C219.413 168.772 217.703 169.483 215.918 169.488H183.364C181.58 169.483 179.869 168.772 178.607 167.51C177.345 166.248 176.634 164.538 176.629 162.754V161.07C176.634 159.285 177.345 157.575 178.607 156.314C179.869 155.052 181.58 154.341 183.364 154.335H215.918C217.703 154.341 219.413 155.052 220.675 156.314C221.937 157.575 222.648 159.285 222.653 161.07V162.754ZM226.302 133.009C226.297 134.793 225.585 136.503 224.323 137.765C223.061 139.027 221.351 139.738 219.566 139.744H102.821C101.037 139.738 99.3266 139.027 98.0646 137.765C96.8026 136.503 96.0913 134.793 96.0861 133.009V131.325C96.0913 129.541 96.8026 127.831 98.0646 126.569C99.3266 125.307 101.037 124.596 102.821 124.591H219.566C221.351 124.596 223.061 125.307 224.323 126.569C225.585 127.831 226.297 129.541 226.302 131.325V133.009ZM226.302 103.264C226.297 105.049 225.585 106.759 224.323 108.021C223.061 109.283 221.351 109.994 219.566 109.999H102.821C101.037 109.994 99.3266 109.283 98.0646 108.021C96.8026 106.759 96.0913 105.049 96.0861 103.264V101.581C96.0913 99.7961 96.8026 98.0862 98.0646 96.8243C99.3266 95.5625 101.037 94.8512 102.821 94.846H219.566C221.351 94.8512 223.061 95.5625 224.323 96.8243C225.585 98.0862 226.297 99.7961 226.302 101.581V103.264ZM226.302 73.5197C226.297 75.3042 225.585 77.0142 224.323 78.276C223.061 79.5379 221.351 80.2491 219.566 80.2543H102.821C101.037 80.2491 99.3266 79.5379 98.0646 78.276C96.8026 77.0142 96.0913 75.3042 96.0861 73.5197V71.836C96.0913 70.0515 96.8026 68.3415 98.0646 67.0797C99.3266 65.8178 101.037 65.1066 102.821 65.1014H219.566C221.351 65.1066 223.061 65.8178 224.323 67.0797C225.585 68.3415 226.297 70.0515 226.302 71.836V73.5197Z" fill="white"/>
<path d="M105.347 136.377C107.517 136.377 109.276 134.618 109.276 132.448C109.276 130.278 107.517 128.52 105.347 128.52C103.177 128.52 101.418 130.278 101.418 132.448C101.418 134.618 103.177 136.377 105.347 136.377Z" fill="white"/>
<path d="M118.256 136.377C120.426 136.377 122.185 134.618 122.185 132.448C122.185 130.278 120.426 128.52 118.256 128.52C116.087 128.52 114.328 130.278 114.328 132.448C114.328 134.618 116.087 136.377 118.256 136.377Z" fill="white"/>
<path d="M131.166 136.377C133.336 136.377 135.095 134.618 135.095 132.448C135.095 130.278 133.336 128.52 131.166 128.52C128.996 128.52 127.237 130.278 127.237 132.448C127.237 134.618 128.996 136.377 131.166 136.377Z" fill="white"/>
<path d="M144.075 136.377C146.245 136.377 148.004 134.618 148.004 132.448C148.004 130.278 146.245 128.52 144.075 128.52C141.905 128.52 140.146 130.278 140.146 132.448C140.146 134.618 141.905 136.377 144.075 136.377Z" fill="white"/>
<path d="M186.171 166.121C188.341 166.121 190.1 164.362 190.1 162.193C190.1 160.023 188.341 158.264 186.171 158.264C184.001 158.264 182.242 160.023 182.242 162.193C182.242 164.362 184.001 166.121 186.171 166.121Z" fill="white"/>
<path d="M199.08 166.121C201.25 166.121 203.009 164.362 203.009 162.193C203.009 160.023 201.25 158.264 199.08 158.264C196.91 158.264 195.151 160.023 195.151 162.193C195.151 164.362 196.91 166.121 199.08 166.121Z" fill="white"/>
<path d="M211.989 166.121C214.159 166.121 215.918 164.362 215.918 162.193C215.918 160.023 214.159 158.264 211.989 158.264C209.819 158.264 208.06 160.023 208.06 162.193C208.06 164.362 209.819 166.121 211.989 166.121Z" fill="white"/>
<path d="M227.205 213.094H94.0603C90.9323 213.094 87.9324 214.336 85.7205 216.548C83.5087 218.759 82.2661 221.759 82.2661 224.887V289.751C82.2661 292.879 83.5087 295.879 85.7205 298.09C87.9324 300.302 90.9323 301.544 94.0603 301.544H227.205C230.333 301.544 233.333 300.302 235.545 298.09C237.757 295.879 238.999 292.879 238.999 289.751V224.887C238.999 221.759 237.757 218.76 235.545 216.548C233.333 214.336 230.333 213.094 227.205 213.094H227.205ZM90.7661 221.138C91.0291 221.091 97.2636 220.03 102.426 223.136C107.588 226.242 109.572 232.247 109.654 232.501L109.862 233.148L109.192 233.267C108.237 233.416 107.27 233.487 106.303 233.479C103.235 233.538 100.206 232.775 97.532 231.269C92.3698 228.164 90.3866 222.159 90.3049 221.905L90.0962 221.257L90.7661 221.138ZM119.668 281.361H95.9209C94.1888 281.361 92.5278 280.673 91.3031 279.448C90.0783 278.224 89.3903 276.563 89.3903 274.831C89.3903 273.099 90.0783 271.438 91.3031 270.214C92.5278 268.989 94.1888 268.301 95.9209 268.301H119.668C121.4 268.301 123.061 268.989 124.286 270.214C125.511 271.438 126.199 273.099 126.199 274.831C126.199 276.563 125.511 278.224 124.286 279.448C123.061 280.673 121.4 281.361 119.668 281.361V281.361ZM227.719 280.174C227.714 282.061 226.961 283.87 225.626 285.205C224.292 286.54 222.483 287.292 220.595 287.297H202.784C200.897 287.292 199.088 286.54 197.753 285.205C196.418 283.87 195.666 282.061 195.66 280.174V269.488C195.666 267.601 196.418 265.792 197.753 264.457C199.088 263.123 200.897 262.37 202.784 262.365H220.595C222.483 262.37 224.292 263.123 225.626 264.457C226.961 265.792 227.714 267.601 227.719 269.488L227.719 280.174Z" fill="#3FB37F"/>
<path d="M208.527 277.972H201.366C200.854 277.972 200.364 278.175 200.002 278.537C199.641 278.898 199.438 279.389 199.438 279.9C199.438 280.411 199.641 280.902 200.002 281.263C200.364 281.625 200.854 281.828 201.366 281.828H208.527C209.038 281.828 209.529 281.625 209.89 281.263C210.252 280.902 210.455 280.411 210.455 279.9C210.455 279.389 210.252 278.898 209.89 278.537C209.529 278.175 209.038 277.972 208.527 277.972V277.972Z" fill="#3F3D56"/>
<path d="M221.747 277.972H214.586C214.075 277.972 213.585 278.175 213.223 278.537C212.861 278.898 212.658 279.389 212.658 279.9C212.658 280.411 212.861 280.902 213.223 281.263C213.585 281.625 214.075 281.828 214.586 281.828H221.747C222.259 281.828 222.749 281.625 223.111 281.263C223.472 280.902 223.675 280.411 223.675 279.9C223.675 279.389 223.472 278.898 223.111 278.537C222.749 278.175 222.259 277.972 221.747 277.972V277.972Z" fill="#3F3D56"/>
<path d="M208.526 272.53H201.365C200.853 272.53 200.363 272.733 200.001 273.095C199.64 273.456 199.437 273.947 199.437 274.458C199.437 274.969 199.64 275.46 200.001 275.821C200.363 276.183 200.853 276.386 201.365 276.386H208.526C209.037 276.386 209.528 276.183 209.889 275.821C210.251 275.46 210.454 274.969 210.454 274.458C210.454 273.947 210.251 273.456 209.889 273.095C209.528 272.733 209.037 272.53 208.526 272.53V272.53Z" fill="#3F3D56"/>
<path d="M221.746 272.53H214.585C214.074 272.53 213.584 272.733 213.222 273.095C212.86 273.456 212.657 273.947 212.657 274.458C212.657 274.969 212.86 275.46 213.222 275.821C213.584 276.183 214.074 276.386 214.585 276.386H221.746C222.258 276.386 222.748 276.183 223.11 275.821C223.471 275.46 223.674 274.969 223.674 274.458C223.674 273.947 223.471 273.456 223.11 273.095C222.748 272.733 222.258 272.53 221.746 272.53H221.746Z" fill="#3F3D56"/>
<path d="M208.526 267.198H201.365C200.853 267.198 200.363 267.401 200.001 267.763C199.64 268.124 199.437 268.615 199.437 269.126C199.437 269.637 199.64 270.128 200.001 270.489C200.363 270.851 200.853 271.054 201.365 271.054H208.526C209.037 271.054 209.528 270.851 209.889 270.489C210.251 270.128 210.454 269.637 210.454 269.126C210.454 268.615 210.251 268.124 209.889 267.763C209.528 267.401 209.037 267.198 208.526 267.198V267.198Z" fill="#3F3D56"/>
<path d="M221.746 267.198H214.585C214.074 267.198 213.584 267.401 213.222 267.763C212.86 268.124 212.657 268.615 212.657 269.126C212.657 269.637 212.86 270.128 213.222 270.489C213.584 270.851 214.074 271.054 214.585 271.054H221.746C222.258 271.054 222.748 270.851 223.11 270.489C223.471 270.128 223.674 269.637 223.674 269.126C223.674 268.615 223.471 268.124 223.11 267.763C222.748 267.401 222.258 267.198 221.746 267.198H221.746Z" fill="#3F3D56"/>
<path d="M319.423 237.528H302.056V254.893H319.423V237.528Z" fill="#E6E6E6"/>
<path d="M281.588 248.071H310.119V276.599H281.588V248.071ZM308.879 249.312H282.829V275.359H308.879V249.312Z" fill="#3F3D56"/>
<path d="M17.3667 94.2671H0V111.632H17.3667V94.2671Z" fill="#E6E6E6"/>
<path d="M37.8346 101.089H9.30359V72.561H37.8346V101.089ZM10.5441 99.8489H36.5941V73.8014H10.5441V99.8489Z" fill="#3F3D56"/>
<g filter="url(#filter1_d_283_819)">
<path d="M405.064 410.196H397.459L393.842 380.869H405.065L405.064 410.196Z" fill="#FFB8B8"/>
</g>
<g filter="url(#filter2_d_283_819)">
<path d="M392.028 408.023H406.693V417.256H382.795C382.795 414.807 383.767 412.459 385.499 410.728C387.231 408.996 389.579 408.023 392.028 408.023V408.023Z" fill="#2F2E41"/>
</g>
<g filter="url(#filter3_d_283_819)">
<path d="M442.898 410.196H435.294L431.677 380.869H442.899L442.898 410.196Z" fill="#FFB8B8"/>
</g>
<g filter="url(#filter4_d_283_819)">
<path d="M429.863 408.023H444.527V417.256H420.629C420.629 414.807 421.602 412.459 423.334 410.728C425.065 408.996 427.414 408.023 429.863 408.023V408.023Z" fill="#2F2E41"/>
</g>
<g filter="url(#filter5_d_283_819)">
<path d="M366.918 305.316C366.371 304.51 366.008 303.594 365.853 302.632C365.698 301.671 365.756 300.687 366.023 299.75C366.29 298.813 366.759 297.946 367.397 297.21C368.035 296.474 368.826 295.887 369.716 295.49L395.565 224.252L408.284 231.193L378.77 299.27C379.338 300.809 379.322 302.502 378.725 304.029C378.127 305.557 376.991 306.812 375.53 307.557C374.069 308.302 372.385 308.485 370.798 308.072C369.211 307.659 367.831 306.678 366.918 305.316V305.316Z" fill="#FFB8B8"/>
</g>
<g filter="url(#filter6_d_283_819)">
<path d="M439.014 318.702C438.169 318.217 437.441 317.553 436.88 316.757C436.319 315.961 435.94 315.051 435.769 314.092C435.598 313.133 435.639 312.148 435.89 311.207C436.14 310.266 436.594 309.391 437.22 308.645L429.212 233.287L443.687 233.948L447.015 308.072C448.2 309.206 448.928 310.735 449.061 312.369C449.194 314.004 448.723 315.63 447.736 316.94C446.75 318.251 445.317 319.154 443.71 319.478C442.102 319.803 440.432 319.527 439.014 318.702V318.702Z" fill="#FFB8B8"/>
</g>
<g filter="url(#filter7_d_283_819)">
<path d="M415.922 211.057C424.336 211.057 431.156 204.238 431.156 195.825C431.156 187.412 424.336 180.593 415.922 180.593C407.509 180.593 400.689 187.412 400.689 195.825C400.689 204.238 407.509 211.057 415.922 211.057Z" fill="#FFB8B8"/>
</g>
<g filter="url(#filter8_d_283_819)">
<path d="M438.917 301.563H392.99L393.045 301.206C393.128 300.672 401.231 247.598 395.255 230.235C394.655 228.529 394.708 226.661 395.403 224.991C396.098 223.322 397.386 221.968 399.019 221.191H399.019C407.561 217.169 423.957 212.216 437.796 224.235C439.833 226.033 441.423 228.28 442.441 230.798C443.46 233.317 443.878 236.037 443.664 238.745L438.917 301.563Z" fill="#CCCCCC"/>
</g>
<g filter="url(#filter9_d_283_819)">
<path d="M401.811 255.441L381.134 251.247L390.826 228.282C391.406 226.058 392.845 224.154 394.826 222.989C396.808 221.824 399.171 221.492 401.397 222.067C403.623 222.641 405.53 224.075 406.7 226.054C407.87 228.033 408.208 230.395 407.638 232.622L401.811 255.441Z" fill="#CCCCCC"/>
</g>
<g filter="url(#filter10_d_283_819)">
<path d="M428.293 263.23L427.05 234.738C426.107 229.382 429.173 224.319 433.889 223.491C438.606 222.666 443.212 226.381 444.159 231.777L448.832 258.399L428.293 263.23Z" fill="#CCCCCC"/>
</g>
<g filter="url(#filter11_d_283_819)">
<path d="M437.389 298.152C444.779 326.293 445.585 362.073 443.591 401.101L433.667 399.861L415.68 325.44L405.757 401.101L394.592 400.481C391.257 359.531 388.01 324.376 393.352 301.253L437.389 298.152Z" fill="#2F2E41"/>
</g>
<g filter="url(#filter12_d_283_819)">
<path d="M425.96 207.597C423.118 210.624 417.84 208.999 417.47 204.864C417.441 204.543 417.443 204.219 417.476 203.899C417.667 202.067 418.726 200.404 418.472 198.47C418.415 197.989 418.235 197.53 417.951 197.137C415.686 194.105 410.37 198.494 408.233 195.749C406.922 194.065 408.463 191.415 407.457 189.534C406.13 187.051 402.198 188.276 399.733 186.916C396.99 185.403 397.154 181.195 398.959 178.635C401.162 175.513 405.023 173.848 408.836 173.608C412.649 173.368 416.436 174.398 419.995 175.785C424.04 177.361 428.051 179.54 430.54 183.096C433.567 187.42 433.858 193.234 432.344 198.291C431.423 201.367 428.28 205.125 425.96 207.597Z" fill="#2F2E41"/>
</g>
<path d="M530.38 418H294.069C293.904 418 293.747 417.935 293.63 417.818C293.514 417.702 293.449 417.544 293.449 417.38C293.449 417.215 293.514 417.058 293.63 416.941C293.747 416.825 293.904 416.76 294.069 416.76H530.38C530.544 416.76 530.702 416.825 530.818 416.941C530.935 417.058 531 417.215 531 417.38C531 417.544 530.935 417.702 530.818 417.818C530.702 417.935 530.544 418 530.38 418Z" fill="#3F3D56"/>
</g>
<defs>
<filter id="filter0_d_283_819" x="-9.97334" y="-69" width="343.295" height="543.649" filterUnits="userSpaceOnUse" color-interpolation-filters="sRGB">
<feFlood flood-opacity="0" result="BackgroundImageFix"/>
<feColorMatrix in="SourceAlpha" type="matrix" values="0 0 0 0 0 0 0 0 0 0 0 0 0 0 0 0 0 0 127 0" result="hardAlpha"/>
<feOffset dy="4"/>
<feGaussianBlur stdDeviation="36"/>
<feComposite in2="hardAlpha" operator="out"/>
<feColorMatrix type="matrix" values="0 0 0 0 0 0 0 0 0 0 0 0 0 0 0 0 0 0 0.25 0"/>
<feBlend mode="normal" in2="BackgroundImageFix" result="effect1_dropShadow_283_819"/>
<feBlend mode="normal" in="SourceGraphic" in2="effect1_dropShadow_283_819" result="shape"/>
</filter>
<filter id="filter1_d_283_819" x="201.842" y="184.869" width="411.223" height="429.327" filterUnits="userSpaceOnUse" color-interpolation-filters="sRGB">
<feFlood flood-opacity="0" result="BackgroundImageFix"/>
<feColorMatrix in="SourceAlpha" type="matrix" values="0 0 0 0 0 0 0 0 0 0 0 0 0 0 0 0 0 0 127 0" result="hardAlpha"/>
<feOffset dx="8" dy="4"/>
<feGaussianBlur stdDeviation="100"/>
<feComposite in2="hardAlpha" operator="out"/>
<feColorMatrix type="matrix" values="0 0 0 0 0 0 0 0 0 0 0 0 0 0 0 0 0 0 0.8 0"/>
<feBlend mode="normal" in2="BackgroundImageFix" result="effect1_dropShadow_283_819"/>
<feBlend mode="normal" in="SourceGraphic" in2="effect1_dropShadow_283_819" result="shape"/>
</filter>
<filter id="filter2_d_283_819" x="190.795" y="212.023" width="423.898" height="409.232" filterUnits="userSpaceOnUse" color-interpolation-filters="sRGB">
<feFlood flood-opacity="0" result="BackgroundImageFix"/>
<feColorMatrix in="SourceAlpha" type="matrix" values="0 0 0 0 0 0 0 0 0 0 0 0 0 0 0 0 0 0 127 0" result="hardAlpha"/>
<feOffset dx="8" dy="4"/>
<feGaussianBlur stdDeviation="100"/>
<feComposite in2="hardAlpha" operator="out"/>
<feColorMatrix type="matrix" values="0 0 0 0 0 0 0 0 0 0 0 0 0 0 0 0 0 0 0.8 0"/>
<feBlend mode="normal" in2="BackgroundImageFix" result="effect1_dropShadow_283_819"/>
<feBlend mode="normal" in="SourceGraphic" in2="effect1_dropShadow_283_819" result="shape"/>
</filter>
<filter id="filter3_d_283_819" x="239.677" y="184.869" width="411.223" height="429.327" filterUnits="userSpaceOnUse" color-interpolation-filters="sRGB">
<feFlood flood-opacity="0" result="BackgroundImageFix"/>
<feColorMatrix in="SourceAlpha" type="matrix" values="0 0 0 0 0 0 0 0 0 0 0 0 0 0 0 0 0 0 127 0" result="hardAlpha"/>
<feOffset dx="8" dy="4"/>
<feGaussianBlur stdDeviation="100"/>
<feComposite in2="hardAlpha" operator="out"/>
<feColorMatrix type="matrix" values="0 0 0 0 0 0 0 0 0 0 0 0 0 0 0 0 0 0 0.8 0"/>
<feBlend mode="normal" in2="BackgroundImageFix" result="effect1_dropShadow_283_819"/>
<feBlend mode="normal" in="SourceGraphic" in2="effect1_dropShadow_283_819" result="shape"/>
</filter>
<filter id="filter4_d_283_819" x="228.629" y="212.023" width="423.898" height="409.232" filterUnits="userSpaceOnUse" color-interpolation-filters="sRGB">
<feFlood flood-opacity="0" result="BackgroundImageFix"/>
<feColorMatrix in="SourceAlpha" type="matrix" values="0 0 0 0 0 0 0 0 0 0 0 0 0 0 0 0 0 0 127 0" result="hardAlpha"/>
<feOffset dx="8" dy="4"/>
<feGaussianBlur stdDeviation="100"/>
<feComposite in2="hardAlpha" operator="out"/>
<feColorMatrix type="matrix" values="0 0 0 0 0 0 0 0 0 0 0 0 0 0 0 0 0 0 0.8 0"/>
<feBlend mode="normal" in2="BackgroundImageFix" result="effect1_dropShadow_283_819"/>
<feBlend mode="normal" in="SourceGraphic" in2="effect1_dropShadow_283_819" result="shape"/>
</filter>
<filter id="filter5_d_283_819" x="173.768" y="28.2524" width="442.516" height="484.036" filterUnits="userSpaceOnUse" color-interpolation-filters="sRGB">
<feFlood flood-opacity="0" result="BackgroundImageFix"/>
<feColorMatrix in="SourceAlpha" type="matrix" values="0 0 0 0 0 0 0 0 0 0 0 0 0 0 0 0 0 0 127 0" result="hardAlpha"/>
<feOffset dx="8" dy="4"/>
<feGaussianBlur stdDeviation="100"/>
<feComposite in2="hardAlpha" operator="out"/>
<feColorMatrix type="matrix" values="0 0 0 0 0 0 0 0 0 0 0 0 0 0 0 0 0 0 0.8 0"/>
<feBlend mode="normal" in2="BackgroundImageFix" result="effect1_dropShadow_283_819"/>
<feBlend mode="normal" in="SourceGraphic" in2="effect1_dropShadow_283_819" result="shape"/>
</filter>
<filter id="filter6_d_283_819" x="237.212" y="37.2871" width="419.871" height="486.324" filterUnits="userSpaceOnUse" color-interpolation-filters="sRGB">
<feFlood flood-opacity="0" result="BackgroundImageFix"/>
<feColorMatrix in="SourceAlpha" type="matrix" values="0 0 0 0 0 0 0 0 0 0 0 0 0 0 0 0 0 0 127 0" result="hardAlpha"/>
<feOffset dx="8" dy="4"/>
<feGaussianBlur stdDeviation="100"/>
<feComposite in2="hardAlpha" operator="out"/>
<feColorMatrix type="matrix" values="0 0 0 0 0 0 0 0 0 0 0 0 0 0 0 0 0 0 0.8 0"/>
<feBlend mode="normal" in2="BackgroundImageFix" result="effect1_dropShadow_283_819"/>
<feBlend mode="normal" in="SourceGraphic" in2="effect1_dropShadow_283_819" result="shape"/>
</filter>
<filter id="filter7_d_283_819" x="208.689" y="-15.4072" width="430.467" height="430.464" filterUnits="userSpaceOnUse" color-interpolation-filters="sRGB">
<feFlood flood-opacity="0" result="BackgroundImageFix"/>
<feColorMatrix in="SourceAlpha" type="matrix" values="0 0 0 0 0 0 0 0 0 0 0 0 0 0 0 0 0 0 127 0" result="hardAlpha"/>
<feOffset dx="8" dy="4"/>
<feGaussianBlur stdDeviation="100"/>
<feComposite in2="hardAlpha" operator="out"/>
<feColorMatrix type="matrix" values="0 0 0 0 0 0 0 0 0 0 0 0 0 0 0 0 0 0 0.8 0"/>
<feBlend mode="normal" in2="BackgroundImageFix" result="effect1_dropShadow_283_819"/>
<feBlend mode="normal" in="SourceGraphic" in2="effect1_dropShadow_283_819" result="shape"/>
</filter>
<filter id="filter8_d_283_819" x="200.99" y="20.6768" width="450.728" height="484.886" filterUnits="userSpaceOnUse" color-interpolation-filters="sRGB">
<feFlood flood-opacity="0" result="BackgroundImageFix"/>
<feColorMatrix in="SourceAlpha" type="matrix" values="0 0 0 0 0 0 0 0 0 0 0 0 0 0 0 0 0 0 127 0" result="hardAlpha"/>
<feOffset dx="8" dy="4"/>
<feGaussianBlur stdDeviation="100"/>
<feComposite in2="hardAlpha" operator="out"/>
<feColorMatrix type="matrix" values="0 0 0 0 0 0 0 0 0 0 0 0 0 0 0 0 0 0 0.8 0"/>
<feBlend mode="normal" in2="BackgroundImageFix" result="effect1_dropShadow_283_819"/>
<feBlend mode="normal" in="SourceGraphic" in2="effect1_dropShadow_283_819" result="shape"/>
</filter>
<filter id="filter9_d_283_819" x="189.134" y="25.791" width="426.774" height="433.65" filterUnits="userSpaceOnUse" color-interpolation-filters="sRGB">
<feFlood flood-opacity="0" result="BackgroundImageFix"/>
<feColorMatrix in="SourceAlpha" type="matrix" values="0 0 0 0 0 0 0 0 0 0 0 0 0 0 0 0 0 0 127 0" result="hardAlpha"/>
<feOffset dx="8" dy="4"/>
<feGaussianBlur stdDeviation="100"/>
<feComposite in2="hardAlpha" operator="out"/>
<feColorMatrix type="matrix" values="0 0 0 0 0 0 0 0 0 0 0 0 0 0 0 0 0 0 0.8 0"/>
<feBlend mode="normal" in2="BackgroundImageFix" result="effect1_dropShadow_283_819"/>
<feBlend mode="normal" in="SourceGraphic" in2="effect1_dropShadow_283_819" result="shape"/>
</filter>
<filter id="filter10_d_283_819" x="234.879" y="27.3765" width="421.952" height="439.853" filterUnits="userSpaceOnUse" color-interpolation-filters="sRGB">
<feFlood flood-opacity="0" result="BackgroundImageFix"/>
<feColorMatrix in="SourceAlpha" type="matrix" values="0 0 0 0 0 0 0 0 0 0 0 0 0 0 0 0 0 0 127 0" result="hardAlpha"/>
<feOffset dx="8" dy="4"/>
<feGaussianBlur stdDeviation="100"/>
<feComposite in2="hardAlpha" operator="out"/>
<feColorMatrix type="matrix" values="0 0 0 0 0 0 0 0 0 0 0 0 0 0 0 0 0 0 0.8 0"/>
<feBlend mode="normal" in2="BackgroundImageFix" result="effect1_dropShadow_283_819"/>
<feBlend mode="normal" in="SourceGraphic" in2="effect1_dropShadow_283_819" result="shape"/>
</filter>
<filter id="filter11_d_283_819" x="198.516" y="102.152" width="454.012" height="502.95" filterUnits="userSpaceOnUse" color-interpolation-filters="sRGB">
<feFlood flood-opacity="0" result="BackgroundImageFix"/>
<feColorMatrix in="SourceAlpha" type="matrix" values="0 0 0 0 0 0 0 0 0 0 0 0 0 0 0 0 0 0 127 0" result="hardAlpha"/>
<feOffset dx="8" dy="4"/>
<feGaussianBlur stdDeviation="100"/>
<feComposite in2="hardAlpha" operator="out"/>
<feColorMatrix type="matrix" values="0 0 0 0 0 0 0 0 0 0 0 0 0 0 0 0 0 0 0.8 0"/>
<feBlend mode="normal" in2="BackgroundImageFix" result="effect1_dropShadow_283_819"/>
<feBlend mode="normal" in="SourceGraphic" in2="effect1_dropShadow_283_819" result="shape"/>
</filter>
<filter id="filter12_d_283_819" x="205.633" y="-22.4272" width="435.604" height="435.585" filterUnits="userSpaceOnUse" color-interpolation-filters="sRGB">
<feFlood flood-opacity="0" result="BackgroundImageFix"/>
<feColorMatrix in="SourceAlpha" type="matrix" values="0 0 0 0 0 0 0 0 0 0 0 0 0 0 0 0 0 0 127 0" result="hardAlpha"/>
<feOffset dx="8" dy="4"/>
<feGaussianBlur stdDeviation="100"/>
<feComposite in2="hardAlpha" operator="out"/>
<feColorMatrix type="matrix" values="0 0 0 0 0 0 0 0 0 0 0 0 0 0 0 0 0 0 0.8 0"/>
<feBlend mode="normal" in2="BackgroundImageFix" result="effect1_dropShadow_283_819"/>
<feBlend mode="normal" in="SourceGraphic" in2="effect1_dropShadow_283_819" result="shape"/>
</filter>
<clipPath id="clip0_283_819">
<rect width="531" height="418" fill="white"/>
</clipPath>
</defs>
</svg>
