<svg width="200" height="200" viewBox="0 0 200 200" fill="none" xmlns="http://www.w3.org/2000/svg">
<path d="M108.644 179.823H1.15533V6.13672H108.644V179.823Z" fill="#3FB37F"/>
<path d="M97.7201 17.0605H12.0795V26.3566H97.7201V17.0605Z" fill="#CCCCCC"/>
<path d="M97.7201 159.603H12.0795V168.899H97.7201V159.603Z" fill="white"/>
<path d="M97.7201 138.752H12.0795V148.048H97.7201V138.752Z" fill="white"/>
<path d="M97.7201 117.902H12.0795V127.198H97.7201V117.902Z" fill="white"/>
<path d="M97.7201 97.0527H12.0795V106.349H97.7201V97.0527Z" fill="white"/>
<path d="M147.743 116.837V100.338L175.875 128.47C179.719 132.314 182.723 136.846 184.764 141.776C186.805 146.705 187.886 152.033 187.886 157.468L198.845 165.43L173.055 200L154.94 189.321H149.119C142.516 189.321 136.014 187.73 130.158 184.678L95.5729 166.643V166.112H136.456H139.178C143.91 166.112 147.743 162.279 147.743 157.55V116.837Z" fill="#FCD18B"/>
<path d="M75.0768 126.392V128.384C74.2479 128.236 73.4334 127.975 72.6604 127.611C73.415 127.079 74.2291 126.674 75.0768 126.392Z" fill="#FCD18B"/>
<path d="M75.0769 106.394V108.602C74.958 108.502 74.8466 108.394 74.7347 108.282L72.8571 106.405C73.2363 106.356 73.6191 106.334 74.0019 106.334C74.3594 106.334 74.7199 106.353 75.0769 106.394Z" fill="#FCD18B"/>
<path d="M139.179 33.4297H83.6445C78.9121 33.4297 75.0755 37.2619 75.0755 41.9943V157.551C75.0755 162.279 78.9121 166.111 83.6445 166.111H136.456C131.864 160.421 130.61 152.936 132.685 146.259H78.5101V50.9434H144.313V113.408L147.743 116.838V41.9943C147.743 37.2619 143.911 33.4297 139.179 33.4297ZM111.409 149.663C115.158 149.663 118.191 152.7 118.191 156.445C118.191 160.194 115.158 163.227 111.409 163.227C107.664 163.227 104.627 160.194 104.627 156.445C104.628 152.7 107.665 149.663 111.409 149.663Z" fill="#808080"/>
<path d="M71.318 142.444L74.1212 145.247C74.4262 145.548 74.7456 145.827 75.0769 146.08V128.384C74.2479 128.235 73.4334 127.975 72.6604 127.61C72.1881 127.93 71.7384 128.302 71.3185 128.722C67.5295 132.514 67.5295 138.656 71.318 142.444Z" fill="#FCD18B"/>
<path d="M67.1432 122.897L69.9464 125.7C70.757 126.511 71.675 127.15 72.6604 127.611C73.415 127.08 74.2291 126.674 75.0768 126.392V108.602C74.958 108.502 74.8466 108.394 74.7347 108.283L72.8575 106.405C70.7683 106.651 68.7456 107.572 67.1432 109.175C63.3547 112.963 63.3547 119.109 67.1432 122.897Z" fill="#FCD18B"/>
<path d="M75.0768 106.394V84.5262C74.8426 84.5114 74.6084 84.5 74.3777 84.5C71.8944 84.5 69.4146 85.4482 67.5186 87.3442C63.7301 91.1323 63.7301 97.2743 67.5186 101.062L72.857 106.405C73.2363 106.356 73.6191 106.334 74.0019 106.334C74.3593 106.334 74.7198 106.353 75.0768 106.394Z" fill="#FCD18B"/>
<path d="M144.315 50.9443V113.409L134.408 103.502C130.218 99.308 123.418 99.308 119.224 103.502C117.128 105.598 116.079 108.342 116.079 111.093C116.079 113.841 117.128 116.588 119.224 118.685L131.59 131.05C134.835 134.296 135.787 139.247 133.809 143.389C133.363 144.322 132.987 145.285 132.686 146.259H78.5079V50.9443H144.315Z" fill="white"/>
<path d="M111.41 149.664C115.157 149.664 118.191 152.701 118.191 156.445C118.191 160.192 115.157 163.226 111.41 163.226C107.666 163.226 104.629 160.193 104.629 156.445C104.629 152.701 107.666 149.664 111.41 149.664Z" fill="#4D4D4D"/>
<path d="M160.546 124.501L147.742 111.698V116.837L157.976 127.071C159.121 128.216 161.078 127.405 161.078 125.787C161.078 125.304 160.887 124.842 160.546 124.501Z" fill="#DDB57A"/>
<path d="M147.743 100.338L152.052 104.647V118.043L147.743 116.837V100.338Z" fill="#DDB57A"/>
<path d="M104.642 84.8278H84.9384V65.124H104.642V84.8278ZM89.7712 79.9945H99.8088V69.9569H89.7712V79.9945Z" fill="#4D4D4D"/>
<path d="M96.8855 72.8799H92.6949V77.0704H96.8855V72.8799Z" fill="#4D4D4D"/>
<path d="M104.642 118.067H84.9384V98.3633H104.642V118.067ZM89.7712 113.234H99.8088V103.196H89.7712V113.234Z" fill="#4D4D4D"/>
<path d="M96.8855 106.119H92.6949V110.31H96.8855V106.119Z" fill="#4D4D4D"/>
<path d="M137.881 84.8278H118.178V65.124H137.881V84.8278ZM123.011 79.9945H133.048V69.9569H123.011V79.9945Z" fill="#4D4D4D"/>
<path d="M130.125 72.8799V77.07H125.934V72.8799H130.125Z" fill="#4D4D4D"/>
<path d="M113.505 72.8799V77.07H109.315V72.8799H113.505Z" fill="#4D4D4D"/>
<path d="M113.505 77.0703V81.2613H109.315V77.0703H113.505Z" fill="#4D4D4D"/>
<path d="M113.505 93.6904V97.881H109.315V93.6904H113.505Z" fill="#4D4D4D"/>
<path d="M117.81 97.9951V102.186H113.62V97.9951H117.81Z" fill="#4D4D4D"/>
<path d="M117.81 102.186V106.376H113.62V102.186H117.81Z" fill="#4D4D4D"/>
<path d="M122.085 106.461V110.651H117.895V106.461H122.085Z" fill="#4D4D4D"/>
<path d="M122.085 110.651V114.842H117.895V110.651H122.085Z" fill="#4D4D4D"/>
<path d="M137.881 113.876V118.067H133.691V113.876H137.881Z" fill="#4D4D4D"/>
<path d="M133.691 106.461V110.651H129.5V106.461H133.691Z" fill="#4D4D4D"/>
<path d="M137.881 106.461V110.651H133.691V106.461H137.881Z" fill="#4D4D4D"/>
<path d="M133.691 88.3594V92.5499H129.5V88.3594H133.691Z" fill="#4D4D4D"/>
<path d="M137.881 88.3594V92.5499H133.691V88.3594H137.881Z" fill="#4D4D4D"/>
<path d="M113.62 106.461V110.651H109.429V106.461H113.62Z" fill="#4D4D4D"/>
<path d="M109.315 89.5V93.6905H105.124V89.5H109.315Z" fill="#4D4D4D"/>
<path d="M123.653 92.9551V97.146H119.462V92.9551H123.653Z" fill="#4D4D4D"/>
<path d="M127.843 92.9551V97.146H123.653V92.9551H127.843Z" fill="#4D4D4D"/>
<path d="M127.843 97.1465V101.337H123.653V97.1465H127.843Z" fill="#4D4D4D"/>
<path d="M123.653 88.7656V92.9557H119.462V88.7656H123.653Z" fill="#4D4D4D"/>
<path d="M119.462 88.7656V92.9557H115.272V88.7656H119.462Z" fill="#4D4D4D"/>
<path d="M98.7946 89.5H94.6041V93.6905H98.7946V89.5Z" fill="#4D4D4D"/>
<path d="M89.1289 89.5H84.9384V93.6905H89.1289V89.5Z" fill="#4D4D4D"/>
<path d="M113.505 81.2617V85.4518H109.315V81.2617H113.505Z" fill="#4D4D4D"/>
<path d="M57.5216 38.9834H12.0795V84.4255H57.5216V38.9834Z" fill="white"/>
<path d="M44.6525 71.5563H24.9487V51.8525H44.6525V71.5563ZM29.7816 66.7234H39.8192V56.6858H29.7816V66.7234Z" fill="#808080"/>
<path d="M36.8958 59.6094H32.7053V63.7999H36.8958V59.6094Z" fill="#808080"/>
<path d="M133.691 118.067V113.876H137.881V118.067H133.691ZM117.895 110.652V106.462H122.085V110.652V114.843H117.895V110.652ZM129.5 110.652V106.462H133.691V110.652H129.5ZM127.843 100.406V101.337H123.653V100.832C122.032 101.33 120.507 102.22 119.224 103.502C118.683 104.043 118.212 104.628 117.81 105.245V106.377H117.167C116.442 107.86 116.079 109.476 116.079 111.094C116.079 113.841 117.128 116.589 119.224 118.686L131.589 131.051C134.835 134.296 135.787 139.248 133.809 143.39C133.363 144.323 132.987 145.286 132.686 146.26H123.199H132.685C130.61 152.937 131.864 160.422 136.456 166.111H138.276C143.48 166.111 147.704 161.912 147.743 156.717V116.838L144.313 113.409L137.881 106.977V110.653H133.691V106.462H137.367L134.408 103.503C132.574 101.666 130.24 100.634 127.843 100.406ZM144.313 50.9434H108.644V50.9442H144.313V50.9434Z" fill="white"/>
<path d="M108.644 50.9434H94.1492L108.644 50.9443V50.9434ZM108.644 33.4297H88.809H108.644Z" fill="#EEEEEE"/>
<path d="M147.743 116.838L147.742 156.715C147.742 156.691 147.743 156.667 147.743 156.642V116.836L147.742 116.836" fill="#FDE0B0"/>
<path d="M132.685 146.259H123.199L129.247 166.111H136.456C131.864 160.421 130.609 152.936 132.685 146.259ZM139.179 33.4297H108.644H88.809L94.1488 50.9434H108.644H144.312L144.314 50.9443V113.409L144.312 113.407V113.408L147.742 116.838L147.743 116.838L147.742 116.837V111.698V100.338L147.743 100.338V41.9943C147.743 37.2641 143.909 33.4297 139.179 33.4297Z" fill="#A9A9A9"/>
<path d="M125.934 77.0702V72.8797H130.125V77.0702H125.934ZM133.048 69.9564H123.011V79.994H133.048V69.9564ZM109.315 97.8809V93.6903H113.505V97.8809H109.315ZM119.462 97.1463V92.9558H123.653V97.1463H119.462ZM119.462 88.7653H123.653V92.9558H119.462H115.272V88.7653H119.462ZM129.5 92.5494V88.3589H133.691V92.5494H129.5ZM133.691 92.5494V88.3589H137.881V92.5494H133.691ZM109.315 77.0702V72.8797H113.505V77.0702V81.2608V85.4513H109.315V81.2608V77.0702ZM118.178 84.8273V65.1235H137.881V84.8273H118.178ZM144.315 50.9443H144.313H108.645H94.1501L98.4708 65.1235H104.643V84.8273H104.475L105.899 89.4998H109.315V93.6903H107.176L111.067 106.461H113.62V110.652H112.344L117.737 128.348L123.199 146.259H132.686C132.987 145.285 133.363 144.322 133.809 143.389C135.787 139.248 134.835 134.296 131.59 131.05L119.224 118.685C117.128 116.588 116.079 113.841 116.079 111.093C116.079 109.475 116.442 107.86 117.167 106.377H113.62V102.186V97.9958H117.81V102.186V105.244C118.212 104.627 118.683 104.043 119.224 103.502C120.507 102.219 122.032 101.329 123.653 100.831V97.1459V92.9554H127.843V97.1459V100.405C130.24 100.633 132.574 101.665 134.408 103.501L137.367 106.461H137.881V106.975L144.313 113.407L144.315 113.409V50.9443Z" fill="white"/>
<path d="M104.642 65.124H98.4704L104.475 84.8278H104.642V65.124Z" fill="#868686"/>
<path d="M123.011 79.9945V69.9569H133.048V79.9945H123.011ZM137.881 65.124H118.178V84.8278H137.881V65.124Z" fill="#868686"/>
<path d="M130.125 72.8799H125.934V77.07H130.125V72.8799Z" fill="#868686"/>
<path d="M113.505 72.8799H109.315V77.07H113.505V72.8799Z" fill="#868686"/>
<path d="M113.505 77.0703H109.315V81.2613H113.505V77.0703Z" fill="#868686"/>
<path d="M113.505 93.6904H109.315V97.881H113.505V93.6904Z" fill="#868686"/>
<path d="M117.81 97.9951H113.62V102.186H117.81V97.9951Z" fill="#868686"/>
<path d="M117.81 102.186H113.62V106.376H117.167H117.81V105.243V102.186Z" fill="#868686"/>
<path d="M122.085 106.461H117.895V110.651H122.085V106.461Z" fill="#868686"/>
<path d="M122.085 110.651H117.895V114.842H122.085V110.651Z" fill="#868686"/>
<path d="M137.881 113.876H133.691V118.067H137.881V113.876Z" fill="#868686"/>
<path d="M133.691 106.461H129.5V110.651H133.691V106.461Z" fill="#868686"/>
<path d="M137.881 106.461H137.367H133.691V110.651H137.881V106.975V106.461Z" fill="#868686"/>
<path d="M133.691 88.3594H129.5V92.5499H133.691V88.3594Z" fill="#868686"/>
<path d="M137.881 88.3594H133.691V92.5499H137.881V88.3594Z" fill="#868686"/>
<path d="M113.62 106.461H111.067L112.344 110.651H113.62V106.461Z" fill="#868686"/>
<path d="M109.315 89.5H105.898L107.175 93.6905H109.315V89.5Z" fill="#868686"/>
<path d="M123.653 92.9551H119.462V97.146H123.653V92.9551Z" fill="#868686"/>
<path d="M127.843 92.9551H123.653V97.146H127.843V92.9551Z" fill="#868686"/>
<path d="M127.843 97.1465H123.653V100.831V101.337H127.843V100.405V97.1465Z" fill="#868686"/>
<path d="M123.653 88.7656H119.462V92.9557H123.653V88.7656Z" fill="#868686"/>
<path d="M119.462 88.7656H115.272V92.9557H119.462V88.7656Z" fill="#868686"/>
<path d="M113.505 81.2617H109.315V85.4518H113.505V81.2617Z" fill="#868686"/>
<path d="M147.743 116.837V157.55C147.743 162.278 143.91 166.111 139.177 166.111H136.456C131.865 160.42 130.608 152.936 132.686 146.259H144.315V113.409L147.743 116.837Z" fill="#FCD18B"/>
<path d="M144.315 113.409V146.259H132.686C132.987 145.285 133.362 144.321 133.808 143.389C135.786 139.247 134.834 134.295 131.589 131.049L119.224 118.685C117.128 116.588 116.079 113.84 116.079 111.093C116.079 108.342 117.127 105.598 119.224 103.502C123.418 99.308 130.217 99.308 134.407 103.502L144.315 113.409Z" fill="#FCD18B"/>
<path d="M131.991 106.742C129.461 104.212 125.361 104.212 122.832 106.742C120.303 109.271 120.303 113.371 122.832 115.9C125.361 118.43 127.545 116.513 130.074 113.984C132.603 111.455 134.52 109.271 131.991 106.742Z" fill="white"/>
<path d="M184.948 30.8845C184.948 42.6188 178.406 52.8181 168.772 58.046C164.4 60.4192 159.393 61.769 154.07 61.769C137.013 61.769 123.185 47.9415 123.185 30.8845C123.185 14.8207 135.449 1.62377 151.12 0.142452C152.089 0.0476296 153.076 0 154.069 0C171.121 0 184.948 13.8274 184.948 30.8845Z" fill="#3FB37F"/>
<path d="M154.067 46.7106H147.12V42.8417H154.067C156.83 42.8417 159.078 40.5935 159.078 37.8301C159.078 35.0663 156.83 32.8181 154.067 32.8181C149.17 32.8181 145.186 28.8343 145.186 23.9376C145.186 19.0409 149.17 15.0566 154.067 15.0566H161.013V18.9256H154.067C151.303 18.9256 149.055 21.1742 149.055 23.9376C149.055 26.701 151.303 28.9492 154.067 28.9492C158.963 28.9492 162.947 32.9335 162.947 37.8301C162.947 42.7268 158.963 46.7106 154.067 46.7106Z" fill="white"/>
<path d="M155.999 7.53223H152.13V16.9926H155.999V7.53223Z" fill="white"/>
<path d="M155.999 44.7764H152.13V54.2372H155.999V44.7764Z" fill="white"/>
</svg>
