<svg width="161" height="161" viewBox="0 0 161 161" fill="none" xmlns="http://www.w3.org/2000/svg">
<path d="M65.6153 31.8191C62.2659 31.8191 59.5733 29.0936 59.5733 25.7771C59.5733 22.4605 62.2988 19.7351 65.6153 19.7351C68.9647 19.7351 71.6573 22.4605 71.6573 25.7771C71.6573 29.0936 68.9647 31.8191 65.6153 31.8191ZM65.6153 35.6939C77.6993 35.6939 87.5176 45.5121 87.5176 57.5962C87.5176 64.2621 84.5294 70.2056 79.8337 74.2445C77.6993 73.1938 75.3022 72.6027 72.6424 72.6027C72.0842 72.6027 71.4931 72.6355 71.0334 72.6684C69.7528 72.7669 65.3526 73.4893 62.1017 78.2178C61.9047 78.5134 61.7077 78.8089 61.5435 79.1044C51.3969 77.1999 43.713 68.301 43.713 57.5962C43.713 45.5121 53.4984 35.6939 65.6153 35.6939ZM58.0956 62.3575C58.1941 64.2292 58.7852 65.7069 59.9345 66.7249C61.1495 67.8413 62.6928 68.4981 64.4988 68.6951V71.125C64.4988 71.4534 64.7615 71.7161 65.0899 71.7161H67.2572C67.5855 71.7161 67.8482 71.4534 67.8482 71.125V68.6294C69.3259 68.3667 70.508 67.7756 71.4275 66.889C72.5111 65.8383 73.0693 64.4591 73.0693 62.7187C73.0693 60.9127 72.5439 59.5007 71.4603 58.5484C70.3767 57.5633 68.702 56.6111 66.4034 55.6259C65.4183 55.1991 64.7287 54.7722 64.3675 54.3453C64.0063 53.9184 63.8093 53.3602 63.8093 52.6706C63.8093 51.981 63.9734 51.4556 64.3018 50.9959C64.6302 50.569 65.1556 50.3392 65.878 50.3392C66.5676 50.3392 67.1258 50.6019 67.5527 51.1273C67.8811 51.5542 68.0781 52.1452 68.1438 52.9333C68.1766 53.2945 68.505 53.5572 68.8333 53.5244L72.3797 53.4587C72.7738 53.4587 73.1021 53.1303 73.0693 52.7363C72.9708 51.1929 72.4782 49.8795 71.5588 48.8287C70.6065 47.7451 69.3587 47.0226 67.8154 46.7271V44.0673C67.8154 43.7389 67.5527 43.4762 67.2243 43.4762H65.0571C64.7287 43.4762 64.466 43.7389 64.466 44.0673V46.6614C62.8242 46.8913 61.4778 47.5152 60.4599 48.5003C59.3434 49.5839 58.7524 50.9631 58.7524 52.6378C58.7524 54.4766 59.2778 55.8886 60.3614 56.8409C61.4122 57.7932 63.1197 58.7455 65.4511 59.6649C66.4034 60.0918 67.093 60.5187 67.4542 60.9455C67.8154 61.3724 68.0124 61.9963 68.0124 62.7516C68.0124 63.4412 67.8154 63.9666 67.4542 64.3934C67.093 64.8203 66.5347 65.0173 65.8452 65.0173C64.9914 65.0173 64.3018 64.7546 63.7764 64.1964C63.3495 63.7695 63.0868 63.08 62.9883 62.1605C62.9555 61.7993 62.6271 61.5366 62.2988 61.5366L58.7524 61.6023C58.3912 61.6351 58.0956 61.9635 58.0956 62.3575ZM126.988 89.6451C125.182 88.2331 106.3 67.2831 101.243 64.3278V9.98246C101.243 4.46584 96.7776 0 91.261 0H39.9696C34.453 0 29.9871 4.46584 29.9871 9.98246V105.111C29.9871 110.628 34.453 115.094 39.9696 115.094H56.4209H62.2988L61.3793 107.279C61.0838 107.016 60.8868 106.852 60.5912 106.589H57.3075H50.7401C51.0357 105.374 51.1342 104.093 50.97 102.78C50.4446 98.6425 47.2922 95.1946 43.2533 94.2751C41.5786 93.8811 40.0024 93.9468 38.5247 94.308V20.1948C40.1994 20.5231 42.0383 20.4246 43.91 19.7022C45.9131 18.947 47.5878 17.5021 48.7699 15.7289C50.4446 13.1677 50.7073 10.7049 50.3132 8.47196H80.9502C80.5562 10.672 80.8188 13.0691 82.4279 15.6304C83.5772 17.4693 85.2847 18.9141 87.2878 19.6694C89.1923 20.3918 91.0312 20.4903 92.7387 20.1619V92.4363V113.189C89.258 110.628 85.3504 102.616 85.3504 102.616C85.3504 102.616 83.4458 81.2717 72.6424 81.2717C72.3469 81.2717 72.0842 81.2717 71.7887 81.3045C71.7887 81.3045 63.6122 81.9941 70.3767 105.407L73.3977 131.381C73.3977 131.381 76.7799 145.501 86.1056 155.254V158.176C86.1056 159.719 87.3534 161 88.9296 161H119.337C120.782 161 121.964 159.916 122.128 158.504C123.211 148.489 127.349 111.58 129.812 105.243C130.271 104.028 130.698 102.813 130.863 101.532C131.257 98.2484 131.158 92.8631 126.988 89.6451Z" fill="#3FB37F"/>
</svg>
