<svg width="161" height="161" viewBox="0 0 161 161" fill="none" xmlns="http://www.w3.org/2000/svg">
<path d="M123.771 52.0732H37.225V146.269H123.771V52.0732Z" fill="#3FB37F"/>
<path opacity="0.2" d="M123.771 52.0732H37.225V81.2388H123.771V52.0732Z" fill="black"/>
<path d="M84.5382 5.83703C82.3172 4.17672 78.6831 4.17672 76.4624 5.83703L26.1993 43.4063C23.9783 45.0663 24.4299 46.4244 27.2024 46.4244H133.797C136.57 46.4244 137.021 45.0663 134.8 43.4063L84.5382 5.83703Z" fill="#D1D3D3"/>
<path d="M52.097 65.2012H24.9613V135.521H52.097V65.2012Z" fill="#D1D3D3"/>
<path d="M41.0497 74.7119H36.0084V141.644H41.0497V74.7119Z" fill="#A4A9AD"/>
<path opacity="0.1" d="M52.097 65.2012H24.9613V72.2792H52.097V65.2012Z" fill="black"/>
<path d="M52.0986 67.3745C54.3907 67.3745 56.2488 65.5164 56.2488 63.2244C56.2488 60.9323 54.391 59.0742 52.0986 59.0742H24.9616C22.6696 59.0742 20.8115 60.9323 20.8115 63.2244C20.8115 65.5161 22.6693 67.3745 24.9616 67.3745H52.0986Z" fill="#A4A9AD"/>
<path d="M52.0986 141.643C54.3907 141.643 56.2488 139.785 56.2488 137.493C56.2488 135.201 54.391 133.343 52.0986 133.343H24.9616C22.6696 133.343 20.8115 135.201 20.8115 137.493C20.8115 139.785 22.6693 141.643 24.9616 141.643H52.0986Z" fill="#A4A9AD"/>
<path d="M94.0674 65.2012H66.9317V135.521H94.0674V65.2012Z" fill="#D1D3D3"/>
<path d="M83.0204 74.7119H77.979V141.644H83.0204V74.7119Z" fill="#A4A9AD"/>
<path opacity="0.1" d="M94.0674 65.2012H66.9317V72.2792H94.0674V65.2012Z" fill="black"/>
<path d="M94.0674 67.3745C96.3594 67.3745 98.2175 65.5164 98.2175 63.2244C98.2175 60.9323 96.3597 59.0742 94.0674 59.0742H66.9304C64.6383 59.0742 62.7802 60.9323 62.7802 63.2244C62.7802 65.5161 64.638 67.3745 66.9304 67.3745H94.0674Z" fill="#A4A9AD"/>
<path d="M94.0674 141.643C96.3594 141.643 98.2175 139.785 98.2175 137.493C98.2175 135.201 96.3597 133.343 94.0674 133.343H66.9304C64.6383 133.343 62.7802 135.201 62.7802 137.493C62.7802 139.785 64.638 141.643 66.9304 141.643H94.0674Z" fill="#A4A9AD"/>
<path d="M136.035 65.2012H108.899V135.521H136.035V65.2012Z" fill="#D1D3D3"/>
<path d="M124.988 74.7119H119.946V141.644H124.988V74.7119Z" fill="#A4A9AD"/>
<path opacity="0.1" d="M136.035 65.2012H108.899V72.2792H136.035V65.2012Z" fill="black"/>
<path d="M136.036 67.3745C138.328 67.3745 140.186 65.5164 140.186 63.2244C140.186 60.9323 138.329 59.0742 136.036 59.0742H108.899C106.607 59.0742 104.749 60.9323 104.749 63.2244C104.749 65.5161 106.607 67.3745 108.899 67.3745H136.036Z" fill="#A4A9AD"/>
<path d="M136.036 141.643C138.328 141.643 140.186 139.785 140.186 137.493C140.186 135.201 138.329 133.343 136.036 133.343H108.899C106.607 133.343 104.749 135.201 104.749 137.493C104.749 139.785 106.607 141.643 108.899 141.643H136.036Z" fill="#A4A9AD"/>
<path d="M147.649 149.234C147.649 150.145 146.903 150.891 145.991 150.891H15.0085C14.0966 150.891 13.3507 150.145 13.3507 149.234V143.301C13.3507 142.389 14.0969 141.644 15.0085 141.644H145.991C146.903 141.644 147.649 142.389 147.649 143.301V149.234V149.234Z" fill="#D1D3D3"/>
<path d="M155.312 156.821C155.312 157.733 154.565 158.479 153.654 158.479H7.34658C6.43466 158.479 5.68878 157.733 5.68878 156.821V150.889C5.68878 149.977 6.43498 149.231 7.34658 149.231H153.653C154.565 149.231 155.311 149.977 155.311 150.889L155.312 156.821Z" fill="#258A25"/>
<path d="M142.578 43.1656C142.578 41.3172 141.066 39.8047 139.218 39.8047H21.7822C19.9338 39.8047 18.4213 41.3172 18.4213 43.1656V50.3549C18.4213 52.2033 19.9338 53.7158 21.7822 53.7158H139.218C141.066 53.7158 142.578 52.2033 142.578 50.3549V43.1656Z" fill="#A4A9AD"/>
<path d="M149.438 51.7173C149.438 49.869 147.926 48.3564 146.077 48.3564H14.9227C13.0743 48.3564 11.5618 49.869 11.5618 51.7173V55.7134C11.5618 57.5617 13.0743 59.0743 14.9227 59.0743H146.077C147.926 59.0743 149.438 57.5617 149.438 55.7134V51.7173Z" fill="#258A25"/>
<path d="M80.4997 36.4195C89.8604 36.4195 97.4487 28.8312 97.4487 19.4705C97.4487 10.1098 89.8604 2.52148 80.4997 2.52148C71.139 2.52148 63.5507 10.1098 63.5507 19.4705C63.5507 28.8312 71.139 36.4195 80.4997 36.4195Z" fill="#A4A9AD"/>
<path d="M80.7081 8.35742C81.315 8.35742 81.7955 8.83791 81.7955 9.4448V10.0011C83.2873 10.1778 84.5514 10.6586 85.7146 11.3919C86.1193 11.6196 86.473 11.9985 86.473 12.6051C86.473 13.3893 85.841 13.9959 85.057 13.9959C84.8042 13.9959 84.5517 13.9198 84.2989 13.7682C83.414 13.2371 82.5543 12.8582 81.6946 12.6557V17.5105C85.5382 18.4715 87.1812 20.0136 87.1812 22.7191C87.1812 25.5001 85.0067 27.346 81.7958 27.6494V29.1667C81.7958 29.7736 81.3154 30.2541 80.7085 30.2541C80.1019 30.2541 79.5959 29.7739 79.5959 29.1667V27.5991C77.6995 27.3966 75.9549 26.7139 74.4125 25.6269C73.9826 25.3486 73.7295 24.9439 73.7295 24.4134C73.7295 23.6292 74.3364 23.0226 75.1203 23.0226C75.4238 23.0226 75.7272 23.1238 75.9546 23.3009C77.1429 24.1606 78.306 24.7423 79.6966 24.9951V20.0136C76.0049 19.0526 74.2858 17.6621 74.2858 14.8053C74.2858 12.0997 76.435 10.2284 79.5956 9.9756V9.44449C79.5956 8.83791 80.1013 8.35742 80.7081 8.35742ZM79.6966 16.9797V12.5041C78.0787 12.6557 77.2693 13.5157 77.2693 14.6282C77.2693 15.6902 77.7498 16.3474 79.6966 16.9797ZM81.694 20.4941V25.0958C83.3121 24.9187 84.197 24.1096 84.197 22.8962C84.1973 21.7833 83.6411 21.101 81.694 20.4941Z" fill="#258A25"/>
<path d="M153.653 146.71H150.17V143.301C150.17 140.997 148.295 139.123 145.991 139.123H142.497C142.629 138.6 142.707 138.057 142.707 137.493C142.707 134.707 140.988 132.317 138.557 131.321V69.3973C140.988 68.4008 142.707 66.0109 142.707 63.2246C142.707 62.6617 142.629 62.1177 142.497 61.5951H146.078C149.321 61.5951 151.959 58.9565 151.959 55.7135V51.7175C151.959 48.4745 149.321 45.8359 146.078 45.8359H145.099V43.1656C145.099 39.9227 142.461 37.2841 139.218 37.2841H130.821L99.0404 13.53C96.5226 5.69066 89.165 0 80.5 0C71.8352 0 64.4773 5.69066 61.9598 13.53L30.1793 37.2844H21.7821C18.5392 37.2844 15.9006 39.923 15.9006 43.1659V45.8363H14.9227C11.6797 45.8363 9.04113 48.4748 9.04113 51.7178V55.7139C9.04113 58.9568 11.6797 61.5954 14.9227 61.5954H18.5005C18.3684 62.118 18.2908 62.6617 18.2908 63.2249C18.2908 66.0109 20.0093 68.4008 22.4409 69.3976V131.321C20.0093 132.318 18.2908 134.707 18.2908 137.494C18.2908 138.057 18.3684 138.601 18.5005 139.123H15.0085C12.7045 139.123 10.8301 140.998 10.8301 143.301V146.711H7.34654C5.04223 146.711 3.16809 148.585 3.16809 150.889V156.822C3.16809 159.126 5.04286 161 7.34654 161H153.653C155.957 161 157.832 159.125 157.832 156.822V150.889C157.832 148.585 155.958 146.71 153.653 146.71ZM99.9432 20.4986L122.401 37.2844H88.3462C94.8878 34.3917 99.5511 28.0027 99.9432 20.4986ZM80.5 5.04131C88.4563 5.04131 94.9293 11.5143 94.9293 19.4706C94.9293 27.4269 88.4563 33.8999 80.5 33.8999C72.5437 33.8999 66.0707 27.4269 66.0707 19.4706C66.0707 11.5143 72.5437 5.04131 80.5 5.04131ZM61.057 20.4986C61.4492 28.003 66.1125 34.3917 72.6541 37.2844H38.5997L61.057 20.4986ZM20.9419 43.1659C20.9419 42.7106 21.3268 42.3257 21.7821 42.3257H139.217C139.673 42.3257 140.058 42.7106 140.058 43.1659V45.8363H20.9419V43.1659ZM14.9227 56.5541C14.4673 56.5541 14.0824 56.1692 14.0824 55.7139V51.7178C14.0824 51.2625 14.4673 50.8776 14.9227 50.8776H146.077C146.533 50.8776 146.918 51.2625 146.918 51.7178V55.7139C146.918 56.1692 146.533 56.5541 146.077 56.5541H14.9227ZM136.036 135.864C136.935 135.864 137.666 136.595 137.666 137.493C137.666 138.392 136.935 139.123 136.036 139.123H108.899C108.001 139.123 107.27 138.392 107.27 137.493C107.27 136.595 108.001 135.864 108.899 135.864H136.036ZM111.42 130.823V69.8954H133.516V130.822H111.42V130.823ZM136.036 64.8541H108.899C108.001 64.8541 107.27 64.123 107.27 63.2246C107.27 62.3262 108.001 61.5951 108.899 61.5951H136.036C136.935 61.5951 137.666 62.3262 137.666 63.2246C137.665 64.1236 136.935 64.8541 136.036 64.8541ZM102.438 139.123H100.528C100.661 138.6 100.738 138.057 100.738 137.493C100.738 134.707 99.0197 132.317 96.588 131.321V69.3973C99.0197 68.4008 100.738 66.0109 100.738 63.2246C100.738 62.6617 100.661 62.1177 100.528 61.5951H102.438C102.306 62.1177 102.228 62.6614 102.228 63.2246C102.228 66.0106 103.947 68.4005 106.379 69.3973V131.321C103.947 132.317 102.228 134.707 102.228 137.493C102.228 138.056 102.306 138.6 102.438 139.123ZM94.0674 135.864C94.9658 135.864 95.6969 136.595 95.6969 137.493C95.6969 138.392 94.9658 139.123 94.0674 139.123H66.9304C66.032 139.123 65.3009 138.392 65.3009 137.493C65.3009 136.595 66.032 135.864 66.9304 135.864H94.0674ZM69.451 130.823V69.8954H91.5467V130.822H69.451V130.823ZM94.0674 64.8541H66.9304C66.032 64.8541 65.3009 64.123 65.3009 63.2246C65.3009 62.3262 66.032 61.5951 66.9304 61.5951H94.0674C94.9658 61.5951 95.6969 62.3262 95.6969 63.2246C95.6969 64.1236 94.9658 64.8541 94.0674 64.8541ZM60.4693 139.123H58.5596C58.6917 138.6 58.7694 138.057 58.7694 137.493C58.7694 134.707 57.0509 132.317 54.6192 131.321V69.3973C57.0509 68.4008 58.7694 66.0109 58.7694 63.2246C58.7694 62.6617 58.6917 62.1177 58.5596 61.5951H60.4693C60.3372 62.1177 60.2596 62.6614 60.2596 63.2246C60.2596 66.0106 61.9781 68.4005 64.4097 69.3973V131.321C61.9781 132.317 60.2596 134.707 60.2596 137.493C60.2596 138.056 60.3376 138.6 60.4693 139.123ZM52.0986 135.864C52.997 135.864 53.7281 136.595 53.7281 137.493C53.7281 138.392 52.997 139.123 52.0986 139.123H24.9616C24.0632 139.123 23.3321 138.392 23.3321 137.493C23.3321 136.595 24.0632 135.864 24.9616 135.864H52.0986ZM27.4822 130.823V69.8954H49.5779V130.822H27.4822V130.823ZM52.0986 64.8541H24.9616C24.0632 64.8541 23.3321 64.123 23.3321 63.2246C23.3321 62.3262 24.0632 61.5951 24.9616 61.5951H52.0986C52.997 61.5951 53.7281 62.3262 53.7281 63.2246C53.7281 64.1236 52.9973 64.8541 52.0986 64.8541ZM15.8714 144.164H145.129V146.711H15.8714V144.164ZM152.791 155.959H8.2094V151.752H152.791V155.959V155.959Z" fill="#3FB37F"/>
</svg>
