<svg width="161" height="161" viewBox="0 0 161 161" fill="none" xmlns="http://www.w3.org/2000/svg">
<g clip-path="url(#clip0_312_812)">
<path d="M155.025 106.716C151.942 106.487 145.577 109.931 143.839 110.817C137.638 113.933 129.01 118.822 123.335 122.725C122.941 122.988 122.416 123.349 122.023 123.611C119.464 125.252 116.774 126.334 113.788 126.99C97.3199 130.5 73.3388 130.861 73.3388 130.861L71.9282 130.927C70.8784 130.993 69.927 130.238 69.7958 129.221C69.6317 128.106 70.4519 127.056 71.6329 126.957L107.293 123.578C111.23 123.152 114.346 119.478 113.92 115.344C113.493 111.211 109.688 108.192 105.751 108.619L74.0277 108.225C71.8625 108.192 68.4179 107.668 66.3512 107.044C45.9131 101.074 34.3654 106.651 28.2308 109.275C26.8529 107.011 24.2612 105.535 21.3743 105.732L7.69428 106.651C3.13427 106.946 -0.277542 110.751 0.0177103 115.147L2.2157 145.526C2.54376 149.922 6.48046 153.235 11.0405 152.907L24.7205 151.988C27.6074 151.791 29.9695 150.02 30.9864 147.592L91.0868 150.184C97.7792 150.906 104.045 150.086 109.95 147.002L111.656 146.116L157.092 119.543C159.323 118.231 160.898 115.967 160.996 113.474C161.094 110.423 159.356 107.044 155.025 106.716ZM16.0598 145.722C13.5009 145.722 11.4013 143.721 11.4013 141.228C11.4013 138.735 13.5009 136.734 16.0598 136.734C18.6186 136.734 20.7182 138.735 20.7182 141.228C20.7182 143.721 18.6186 145.722 16.0598 145.722ZM120.612 111.375C125.402 108.75 134.784 104.223 139.902 102.222C142.461 101.205 144.987 101.27 147.316 102.845C145.479 103.501 143.773 104.321 142.166 105.109C136.785 107.799 127.304 112.949 122.679 116.197C122.22 116.525 121.727 116.853 121.268 117.181C121.334 116.361 121.334 115.508 121.235 114.655C121.137 113.573 120.875 112.556 120.546 111.571C120.546 111.506 120.579 111.44 120.612 111.375ZM134.948 99.1708C131.241 100.811 124.122 103.304 120.743 105.174L118.447 106.421C118.217 106.552 118.02 106.683 117.824 106.847C116.807 105.634 115.593 104.617 114.248 103.796C117.397 102.123 124.418 99.8598 127.6 98.6131C130.159 97.5962 132.619 97.6618 134.948 99.1708ZM37.7116 78.4375C37.7116 76.5348 39.2535 74.9929 41.1563 74.9929H127.009C128.912 74.9929 130.454 76.5348 130.454 78.4375C130.454 80.3403 128.912 81.8822 127.009 81.8822H41.1235C39.2535 81.8822 37.7116 80.3403 37.7116 78.4375ZM37.7116 90.9038C37.7116 89.001 39.2535 87.4592 41.1563 87.4592H127.009C128.912 87.4592 130.454 89.001 130.454 90.9038C130.454 92.8065 128.912 94.3484 127.009 94.3484H41.1235C39.2535 94.3484 37.7116 92.8065 37.7116 90.9038ZM104.832 40.8092C104.832 38.1191 107.03 35.9212 109.721 35.9212C112.411 35.9212 114.609 38.1191 114.609 40.8092C114.609 43.4993 112.411 45.6973 109.721 45.6973C106.998 45.6973 104.832 43.4993 104.832 40.8092ZM53.5569 40.8092C53.5569 38.1191 55.7549 35.9212 58.4449 35.9212C61.135 35.9212 63.333 38.1191 63.333 40.8092C63.333 43.4993 61.135 45.6973 58.4449 45.6973C55.7221 45.6973 53.5569 43.4993 53.5569 40.8092ZM45.6835 69.5472H122.449C126.878 69.5472 130.487 65.9385 130.487 61.5097V20.1087C130.487 15.6799 126.878 12.0713 122.449 12.0713H45.6835C41.2547 12.0713 37.646 15.6799 37.646 20.1087V61.5097C37.646 65.9385 41.2547 69.5472 45.6835 69.5472ZM44.5025 28.4414C44.9617 28.5398 45.4538 28.5726 45.9459 28.5726C50.4403 28.5726 54.0818 24.9312 54.0818 20.4368C54.0818 19.9119 54.049 19.4198 53.9505 18.9277H113.723C113.559 19.551 113.46 20.2399 113.46 20.9289C113.46 25.4233 117.102 29.0647 121.596 29.0647C122.285 29.0647 122.974 28.9663 123.597 28.8023V53.7675C122.941 53.6035 122.285 53.5051 121.596 53.5051C117.102 53.5051 113.46 57.1465 113.46 61.6409C113.46 61.969 113.493 62.3299 113.526 62.6579H53.9505C54.049 62.1658 54.0818 61.6737 54.0818 61.1489C54.0818 56.6544 50.4403 53.013 45.9459 53.013C45.4538 53.013 44.9945 53.0458 44.5025 53.1442V28.4414V28.4414ZM77.0787 40.8092C77.0787 36.9381 80.228 33.756 84.1319 33.756C88.003 33.756 91.1852 36.9053 91.1852 40.8092C91.1852 44.6803 88.0358 47.8625 84.1319 47.8625C80.228 47.8625 77.0787 44.7131 77.0787 40.8092ZM84.1319 58.3932C93.8425 58.3932 101.683 50.5198 101.683 40.842C101.683 31.1643 93.8097 23.2909 84.1319 23.2909C74.4214 23.2909 66.5808 31.1643 66.5808 40.842C66.5808 50.5198 74.4214 58.3932 84.1319 58.3932ZM84.1319 29.0319C90.6275 29.0319 95.9092 34.3137 95.9092 40.8092C95.9092 47.3048 90.6275 52.5865 84.1319 52.5865C77.6364 52.5865 72.3546 47.3048 72.3546 40.8092C72.3546 34.3137 77.6364 29.0319 84.1319 29.0319Z" fill="#3FB37F"/>
</g>
<defs>
<clipPath id="clip0_312_812">
<rect width="161" height="161" fill="white"/>
</clipPath>
</defs>
</svg>
