<svg width="568" height="342" viewBox="0 0 568 342" fill="none" xmlns="http://www.w3.org/2000/svg">
<g clip-path="url(#clip0_470_906)">
<path d="M29.6349 341.236C29.5969 341.068 25.922 324.286 33.4271 310.347C40.9322 296.409 56.9525 290.263 57.1134 290.202L57.8456 289.927L58.0186 290.691C58.0566 290.859 61.7315 307.641 54.2264 321.579C46.7216 335.517 30.701 341.664 30.54 341.725L29.8075 342L29.6349 341.236ZM56.8415 291.792C53.6325 293.174 40.9675 299.224 34.6288 310.996C28.2895 322.769 30.2021 336.692 30.812 340.135C34.0196 338.756 46.6796 332.715 53.0246 320.931C59.3636 309.158 57.4517 295.237 56.8415 291.792V291.792Z" fill="#F1F1F1"/>
<path d="M48.4912 316.69C35.0041 324.816 29.8098 340.957 29.8098 340.957C29.8098 340.957 46.4824 343.922 59.9694 335.796C73.4564 327.67 78.6507 311.53 78.6507 311.53C78.6507 311.53 61.9782 308.564 48.4912 316.69Z" fill="#F1F1F1"/>
<path d="M252.735 186.423C252.941 185.36 252.911 184.264 252.649 183.214C252.386 182.163 251.896 181.183 251.214 180.343C250.532 179.503 249.675 178.822 248.702 178.35C247.729 177.877 246.664 177.624 245.583 177.608L239.337 161.878L228.867 163.348L237.998 185.437C238.092 187.258 238.849 188.981 240.127 190.28C241.404 191.579 243.113 192.364 244.929 192.485C246.746 192.607 248.544 192.057 249.983 190.939C251.421 189.822 252.401 188.215 252.735 186.423Z" fill="#9F616A"/>
<path d="M233.445 180.896L230.201 173.149L209.984 134.609L211.083 63.2966L211.294 63.2685C224.231 61.5569 232.983 121.25 233.35 123.792L246.124 167.543L249.164 177.186L233.445 180.896Z" fill="#3FB37F"/>
<path d="M202.38 331.27L212.21 331.269L216.886 293.299L202.378 293.3L202.38 331.27Z" fill="#9F616A"/>
<path d="M199.873 328.056L219.231 328.055H219.232C222.504 328.055 225.642 329.357 227.955 331.674C230.269 333.991 231.568 337.133 231.569 340.41V340.811L199.873 340.812L199.873 328.056Z" fill="#2F2E41"/>
<path d="M111.999 316.272L120.064 321.9L145.578 293.426L133.675 285.119L111.999 316.272Z" fill="#9F616A"/>
<path d="M111.777 312.199L127.659 323.283L127.66 323.283C130.344 325.157 132.175 328.021 132.751 331.247C133.326 334.472 132.598 337.795 130.728 340.483L130.499 340.812L104.494 322.665L111.777 312.199Z" fill="#2F2E41"/>
<path d="M196.978 322.345L196.553 251.116L190.368 206.328L178.837 245.715L178.815 245.747L137.027 306.501L120.767 298.251L120.856 298.039C121.85 295.672 145.265 240.082 151.559 240.082C152.108 240.12 152.659 240.024 153.163 239.802C153.668 239.58 154.111 239.239 154.454 238.807C156.301 236.337 154.797 231.095 154.782 231.043C152.98 223.561 157.51 221.013 158.412 220.588L160.839 170.42L161.09 170.437L226.879 175.059L224.119 237.782L218.181 319.962L217.977 319.985L196.978 322.345Z" fill="#2F2E41"/>
<path d="M227.884 186.175L227.599 186.152L156.846 180.441L157.02 156.996L160.483 95.7819L160.503 95.7394L174.606 65.078L184.603 60.5446L199.189 59.7759L199.224 59.7848L212.535 63.0875L226.382 162.633L227.884 186.175Z" fill="#3FB37F"/>
<path d="M201.474 51.9175C210.502 46.9754 213.819 35.6403 208.884 26.5997C203.95 17.5591 192.631 14.2365 183.603 19.1786C174.576 24.1206 171.258 35.4558 176.193 44.4964C181.128 53.537 192.447 56.8595 201.474 51.9175Z" fill="#9F616A"/>
<path d="M173.804 40.2314V32.9628C173.804 32.9628 167.951 26.059 174.389 24.32C174.389 24.32 176.145 6.92946 191.364 15.045C191.364 15.045 212.436 11.5669 210.094 23.7403C210.094 23.7403 215.362 20.5622 213.606 28.6778L210.21 41.7506C210.21 41.7506 211.85 33.1151 206.582 31.9557L203.656 30.2166C203.656 30.2166 195.461 38.3322 183.169 28.4776C183.169 28.4776 177.901 27.2184 178.487 32.4356C179.072 37.6528 173.804 40.2314 173.804 40.2314Z" fill="#2F2E41"/>
<path d="M190.599 168.667C190.611 167.585 190.386 166.512 189.939 165.526C189.492 164.54 188.835 163.664 188.013 162.96C187.192 162.255 186.226 161.74 185.184 161.45C184.142 161.16 183.05 161.102 181.983 161.281L173.02 146.929L162.983 150.257L175.925 170.346C176.343 172.12 177.397 173.679 178.886 174.728C180.376 175.776 182.198 176.241 184.006 176.034C185.815 175.827 187.485 174.963 188.701 173.605C189.916 172.248 190.591 170.491 190.599 168.667Z" fill="#9F616A"/>
<path d="M167.45 164.144L151.235 131.175L151.249 131.094C151.314 130.729 157.841 94.4351 162.834 81.0944C167.857 67.6692 174.734 64.9738 175.024 64.8656L175.169 64.8115L181.335 70.7343L172.794 127.826L182 155.361L167.45 164.144Z" fill="#3FB37F"/>
<path d="M568 0H536.604V31.4416H568V0Z" fill="#F1F1F1"/>
<path d="M322.292 122.349H290.896V153.79H322.292V122.349Z" fill="#F1F1F1"/>
<path d="M308.518 140.013H556.734V14.1719H308.518V140.013Z" fill="white"/>
<path d="M558.781 142.063H306.47V12.1211H558.781V142.063ZM310.565 137.962H554.686V16.2222H310.565V137.962Z" fill="#E5E5E5"/>
<path d="M529.286 58.3145H338.312V64.6569H529.286V58.3145Z" fill="#E5E5E5"/>
<path d="M529.286 73.6958H338.312V80.0382H529.286V73.6958Z" fill="#E5E5E5"/>
<path d="M529.286 96.4062H493.795V101.91H529.286V96.4062Z" fill="#3FB37F"/>
<path d="M260.724 341.972H0.682523C0.501507 341.972 0.327904 341.9 0.199906 341.772C0.071908 341.644 0 341.47 0 341.289C0 341.108 0.071908 340.934 0.199906 340.806C0.327904 340.677 0.501507 340.605 0.682523 340.605H260.724C260.905 340.605 261.079 340.677 261.207 340.806C261.335 340.934 261.406 341.108 261.406 341.289C261.406 341.47 261.335 341.644 261.207 341.772C261.079 341.9 260.905 341.972 260.724 341.972Z" fill="#CBCBCB"/>
</g>
<defs>
<clipPath id="clip0_470_906">
<rect width="568" height="342" fill="white"/>
</clipPath>
</defs>
</svg>
