<svg width="200" height="200" viewBox="0 0 200 200" fill="none" xmlns="http://www.w3.org/2000/svg">
<g clip-path="url(#clip0_315_1122)">
<path d="M177.615 91.0125C175.948 91.0125 174.335 91.2458 172.803 91.6728C171.357 83.2095 163.973 76.7445 155.104 76.7445C152.228 76.7445 149.51 77.4276 147.098 78.6342C143.829 74.1596 138.545 71.2448 132.592 71.2448C131.02 71.2448 129.493 71.448 128.039 71.8294V51.864C128.039 41.9614 119.982 33.9043 110.08 33.9043C100.177 33.9043 92.1199 41.9614 92.1199 51.864V97.3963C91.9442 97.4755 91.7693 97.5579 91.5983 97.6531L81.3927 103.334C71.8112 108.669 67.9218 120.258 72.3462 130.293L80.0044 147.661C80.3818 148.518 80.9349 149.285 81.6274 149.915L98.5426 165.301C101.428 170.517 105.221 175.253 109.848 179.278L109.85 193.298C109.85 196.999 112.852 200.001 116.553 200.001H171.142C174.843 200.001 177.845 196.999 177.845 193.298L177.847 179.278C189.155 169.442 195.575 155.414 195.575 140.289V108.972C195.575 99.0689 187.518 91.0125 177.615 91.0125ZM91.6989 140.952L84.6132 124.883C82.9989 121.222 84.4181 116.994 87.9134 115.048L92.1192 112.706V140.288C92.1192 140.647 92.1407 141.002 92.1474 141.36L91.6989 140.952ZM182.168 140.289C182.168 152.338 176.667 163.447 167.075 170.77C165.414 172.037 164.439 174.007 164.439 176.097L164.438 186.593H123.256L123.254 176.097C123.254 174.007 122.279 172.037 120.618 170.77C111.027 163.447 105.526 152.337 105.526 140.289V51.864C105.526 49.3535 107.568 47.3115 110.078 47.3115C112.588 47.3115 114.632 49.3535 114.632 51.864V116.283C114.632 119.986 117.634 122.987 121.336 122.987C125.037 122.987 128.039 119.986 128.039 116.283V89.2052C128.039 86.6947 130.082 84.6528 132.592 84.6528C135.102 84.6528 137.144 86.6947 137.144 89.2052V116.837C137.144 120.539 140.146 123.54 143.848 123.54C147.549 123.54 150.551 120.539 150.551 116.837V94.7048C150.551 92.1943 152.594 90.1524 155.104 90.1524C157.614 90.1524 159.656 92.1943 159.656 94.7048V108.973V116.283C159.656 119.986 162.658 122.987 166.36 122.987C170.062 122.987 173.063 119.986 173.063 116.283V108.973C173.063 106.462 175.106 104.42 177.616 104.42C180.126 104.42 182.168 106.462 182.168 108.973V140.289Z" fill="#3FB37F"/>
<path d="M15.4136 21.9758C21.4821 21.9758 26.4016 17.0564 26.4016 10.9879C26.4016 4.91946 21.4821 0 15.4136 0C9.34519 0 4.42574 4.91946 4.42574 10.9879C4.42574 17.0564 9.34519 21.9758 15.4136 21.9758Z" fill="#3FB37F"/>
<path d="M62.9993 21.9758C69.0678 21.9758 73.9873 17.0564 73.9873 10.9879C73.9873 4.91946 69.0678 0 62.9993 0C56.9309 0 52.0114 4.91946 52.0114 10.9879C52.0114 17.0564 56.9309 21.9758 62.9993 21.9758Z" fill="#3FB37F"/>
<path d="M110.586 21.9758C116.654 21.9758 121.574 17.0564 121.574 10.9879C121.574 4.91946 116.654 0 110.586 0C104.517 0 99.5978 4.91946 99.5978 10.9879C99.5978 17.0564 104.517 21.9758 110.586 21.9758Z" fill="#3FB37F"/>
<path d="M15.4136 58.5764C21.4821 58.5764 26.4016 53.657 26.4016 47.5885C26.4016 41.52 21.4821 36.6006 15.4136 36.6006C9.34519 36.6006 4.42574 41.52 4.42574 47.5885C4.42574 53.657 9.34519 58.5764 15.4136 58.5764Z" fill="#3FB37F"/>
<path d="M62.9993 58.5764C69.0678 58.5764 73.9873 53.657 73.9873 47.5885C73.9873 41.52 69.0678 36.6006 62.9993 36.6006C56.9309 36.6006 52.0114 41.52 52.0114 47.5885C52.0114 53.657 56.9309 58.5764 62.9993 58.5764Z" fill="#3FB37F"/>
<path d="M15.4136 95.177C21.4821 95.177 26.4016 90.2575 26.4016 84.1891C26.4016 78.1206 21.4821 73.2012 15.4136 73.2012C9.34519 73.2012 4.42574 78.1206 4.42574 84.1891C4.42574 90.2575 9.34519 95.177 15.4136 95.177Z" fill="#3FB37F"/>
<path d="M62.9993 95.177C69.0678 95.177 73.9873 90.2575 73.9873 84.1891C73.9873 78.1206 69.0678 73.2012 62.9993 73.2012C56.9309 73.2012 52.0114 78.1206 52.0114 84.1891C52.0114 90.2575 56.9309 95.177 62.9993 95.177Z" fill="#3FB37F"/>
</g>
<defs>
<clipPath id="clip0_315_1122">
<rect width="200" height="200" fill="white"/>
</clipPath>
</defs>
</svg>
