<svg width="103" height="161" viewBox="0 0 103 161" fill="none" xmlns="http://www.w3.org/2000/svg">
<path d="M36.6153 31.8191C33.2659 31.8191 30.5733 29.0936 30.5733 25.7771C30.5733 22.4605 33.2988 19.7351 36.6153 19.7351C39.9647 19.7351 42.6573 22.4605 42.6573 25.7771C42.6573 29.0936 39.9647 31.8191 36.6153 31.8191ZM36.6153 35.6939C48.6993 35.6939 58.5176 45.5121 58.5176 57.5962C58.5176 64.2621 55.5294 70.2056 50.8337 74.2445C48.6993 73.1938 46.3022 72.6027 43.6424 72.6027C43.0842 72.6027 42.4931 72.6355 42.0334 72.6684C40.7528 72.7669 36.3526 73.4893 33.1017 78.2178C32.9047 78.5134 32.7077 78.8089 32.5435 79.1044C22.3969 77.1999 14.713 68.301 14.713 57.5962C14.713 45.5121 24.4984 35.6939 36.6153 35.6939ZM29.0956 62.3575C29.1941 64.2292 29.7852 65.7069 30.9345 66.7249C32.1495 67.8413 33.6928 68.4981 35.4988 68.6951V71.125C35.4988 71.4534 35.7615 71.7161 36.0899 71.7161H38.2572C38.5855 71.7161 38.8482 71.4534 38.8482 71.125V68.6294C40.3259 68.3667 41.508 67.7756 42.4275 66.889C43.5111 65.8383 44.0693 64.4591 44.0693 62.7187C44.0693 60.9127 43.5439 59.5007 42.4603 58.5484C41.3767 57.5633 39.702 56.6111 37.4034 55.6259C36.4183 55.1991 35.7287 54.7722 35.3675 54.3453C35.0063 53.9184 34.8093 53.3602 34.8093 52.6706C34.8093 51.981 34.9734 51.4556 35.3018 50.9959C35.6302 50.569 36.1556 50.3392 36.878 50.3392C37.5676 50.3392 38.1258 50.6019 38.5527 51.1273C38.8811 51.5542 39.0781 52.1452 39.1438 52.9333C39.1766 53.2945 39.505 53.5572 39.8333 53.5244L43.3797 53.4587C43.7738 53.4587 44.1021 53.1303 44.0693 52.7363C43.9708 51.1929 43.4782 49.8795 42.5588 48.8287C41.6065 47.7451 40.3587 47.0226 38.8154 46.7271V44.0673C38.8154 43.7389 38.5527 43.4762 38.2243 43.4762H36.0571C35.7287 43.4762 35.466 43.7389 35.466 44.0673V46.6614C33.8241 46.8913 32.4778 47.5152 31.4599 48.5003C30.3434 49.5839 29.7524 50.9631 29.7524 52.6378C29.7524 54.4766 30.2778 55.8886 31.3614 56.8409C32.4122 57.7932 34.1197 58.7455 36.4511 59.6649C37.4034 60.0918 38.093 60.5187 38.4542 60.9455C38.8154 61.3724 39.0124 61.9963 39.0124 62.7516C39.0124 63.4412 38.8154 63.9666 38.4542 64.3934C38.093 64.8203 37.5347 65.0173 36.8452 65.0173C35.9914 65.0173 35.3018 64.7546 34.7764 64.1964C34.3495 63.7695 34.0868 63.08 33.9883 62.1605C33.9555 61.7993 33.6271 61.5366 33.2988 61.5366L29.7524 61.6023C29.3912 61.6351 29.0956 61.9635 29.0956 62.3575ZM97.9877 89.6451C96.1817 88.2331 77.3004 67.2831 72.2435 64.3278V9.98246C72.2435 4.46584 67.7776 0 62.261 0H10.9696C5.45295 0 0.987114 4.46584 0.987114 9.98246V105.111C0.987114 110.628 5.45295 115.094 10.9696 115.094H27.4209H33.2988L32.3793 107.279C32.0838 107.016 31.8868 106.852 31.5912 106.589H28.3075H21.7401C22.0357 105.374 22.1342 104.093 21.97 102.78C21.4446 98.6425 18.2922 95.1946 14.2533 94.2751C12.5786 93.8811 11.0024 93.9468 9.52474 94.308V20.1948C11.1994 20.5231 13.0383 20.4246 14.91 19.7022C16.9131 18.947 18.5878 17.5021 19.7699 15.7289C21.4446 13.1677 21.7073 10.7049 21.3132 8.47196H51.9502C51.5562 10.672 51.8188 13.0691 53.4279 15.6304C54.5772 17.4693 56.2847 18.9141 58.2878 19.6694C60.1923 20.3918 62.0312 20.4903 63.7387 20.1619V92.4363V113.189C60.258 110.628 56.3504 102.616 56.3504 102.616C56.3504 102.616 54.4458 81.2717 43.6424 81.2717C43.3469 81.2717 43.0842 81.2717 42.7887 81.3045C42.7887 81.3045 34.6122 81.9941 41.3767 105.407L44.3977 131.381C44.3977 131.381 47.7799 145.501 57.1056 155.254V158.176C57.1056 159.719 58.3534 161 59.9296 161H90.3367C91.7815 161 92.9636 159.916 93.1278 158.504C94.2115 148.489 98.3489 111.58 100.812 105.243C101.271 104.028 101.698 102.813 101.862 101.532C102.257 98.2484 102.158 92.8631 97.9877 89.6451Z" fill="#3FB37F"/>
</svg>
