<svg width="524" height="407" viewBox="0 0 524 407" fill="none" xmlns="http://www.w3.org/2000/svg">
<g clip-path="url(#clip0_469_808)">
<path d="M298.513 360.063C294.89 355.176 289.985 351.599 283.819 350.261C278.442 349.094 272.912 349.292 267.446 349.333L198.333 349.846C192.414 349.89 186.738 354.831 187.013 360.751C187.286 366.622 191.988 371.703 198.333 371.656C218.578 371.505 238.824 371.355 259.069 371.205C263.842 371.169 268.618 371.086 273.391 371.101C274.463 371.105 275.53 371.159 276.601 371.171C276.861 371.174 277.048 371.171 277.18 371.166C277.213 371.176 277.241 371.185 277.285 371.196C277.843 371.344 278.416 371.446 278.978 371.586C278.781 371.592 279.343 371.929 279.625 372.043C279.663 372.117 279.746 372.247 279.884 372.449C280.076 372.797 280.646 373.852 280.669 373.819C281.525 375.904 282.231 378.042 282.782 380.22C284.098 385.023 284.387 386.027 284.576 390.534C284.816 396.226 289.611 401.709 295.896 401.438C301.823 401.182 307.472 396.639 307.215 390.534C306.782 380.246 304.908 368.69 298.513 360.063Z" fill="#E6E6E6"/>
<path d="M202.395 384.671C201.097 377.092 199.824 369.509 198.501 361.935C197.158 354.251 194.415 347.215 188.209 342.172C186.55 340.825 184.831 339.567 183.104 338.312C182.496 337.872 181.89 337.43 181.29 336.98C181.254 336.953 181.231 336.936 181.2 336.912C181.134 336.858 181.055 336.793 180.949 336.706C178.362 334.597 175.862 332.394 173.481 330.052C171.367 327.972 169.344 325.804 167.415 323.547C166.933 322.983 166.456 322.414 165.987 321.84C165.906 321.742 165.471 321.2 165.184 320.846C164.917 320.492 164.43 319.853 164.348 319.742C163.799 318.994 163.26 318.239 162.731 317.478C159.125 312.274 156.003 306.774 153.401 301.042C153.143 300.473 152.891 299.901 152.645 299.326C152.579 299.151 152.494 298.925 152.381 298.625C151.856 297.236 151.333 295.848 150.854 294.443C149.835 291.457 148.959 288.427 148.226 285.354C147.864 283.836 147.538 282.31 147.248 280.777C147.098 279.989 146.958 279.199 146.828 278.407C146.806 278.275 146.679 277.421 146.604 276.939C146.549 276.454 146.446 275.595 146.432 275.462C146.349 274.664 146.276 273.865 146.212 273.066C146.067 271.266 145.969 269.464 145.918 267.659C145.831 264.45 145.891 261.242 146.097 258.034C146.214 256.232 146.382 254.434 146.587 252.64C146.6 252.529 146.61 252.442 146.619 252.363C146.631 252.282 146.646 252.191 146.663 252.078C146.815 251.087 146.975 250.096 147.155 249.109C147.834 245.361 148.717 241.65 149.8 237.991C150.313 236.26 150.87 234.544 151.472 232.841C151.74 232.086 152.016 231.333 152.301 230.583C152.283 230.631 153.138 228.528 153.149 228.457C156.541 220.736 162.09 213.697 162.097 204.926C162.103 198.987 156.888 193.299 150.778 193.573C147.732 193.683 144.849 194.929 142.738 197.047C140.626 199.164 139.451 201.989 139.459 204.926C139.459 205.059 139.458 205.173 139.458 205.283C139.401 205.468 139.353 205.622 139.31 205.759C138.649 207.144 137.838 208.46 137.112 209.81C135.124 213.506 133.427 217.324 131.814 221.198C129.175 227.506 127.155 234.038 125.78 240.709C122.792 255.326 122.56 270.341 125.096 285.037C129.484 310.808 143.958 335.477 164.079 352.059C165.825 353.498 167.614 354.889 169.419 356.251C170.167 356.815 170.92 357.368 171.677 357.918C172.035 358.178 173.518 359.304 172.865 358.759C174.268 359.912 174.858 360.492 175.219 361.341C175.271 361.537 175.342 361.803 175.438 362.166C175.692 363.124 175.933 364.08 176.134 365.051C177.885 373.537 179.102 382.166 180.565 390.707C181.571 396.575 189.07 400.395 194.49 398.636C200.797 396.589 203.473 390.959 202.395 384.671Z" fill="#E6E6E6"/>
<path d="M299.658 406.681C294.904 406.693 290.34 404.888 286.966 401.662C283.592 398.436 281.684 394.052 281.66 389.472V377.033C268.142 378.491 221.849 378.153 208.58 376.099V388.975C208.544 393.551 206.632 397.928 203.261 401.151C199.889 404.375 195.332 406.184 190.582 406.184C185.832 406.184 181.274 404.375 177.903 401.151C174.531 397.928 172.619 393.551 172.584 388.975V363.695C154.611 354.077 139.628 340.012 129.182 322.953C118.735 305.894 113.203 286.458 113.157 266.652C113.157 232.69 129.134 201.009 156.99 179.732C175.103 165.851 197.109 157.503 220.183 155.76C223.315 155.523 226.466 155.403 229.549 155.403C240.41 155.403 289.413 157.02 301.708 160.428L329.744 133.628C330.156 133.229 330.682 132.957 331.255 132.847C331.829 132.737 332.423 132.794 332.962 133.01C333.506 133.218 333.972 133.58 334.298 134.048C334.624 134.516 334.796 135.068 334.791 135.632V139.893L340.25 134.684C340.661 134.285 341.187 134.012 341.76 133.902C342.333 133.792 342.927 133.849 343.466 134.065C344.01 134.274 344.476 134.636 344.803 135.104C345.13 135.572 345.302 136.124 345.297 136.688V184.304C359.364 196.521 370.086 211.893 376.513 229.058C382.939 246.222 384.871 264.648 382.137 282.703C379.403 300.759 372.088 317.886 360.841 332.566C349.593 347.247 334.76 359.028 317.656 366.866V389.472C317.633 394.052 315.725 398.436 312.351 401.662C308.977 404.888 304.412 406.693 299.658 406.681ZM283.075 375.487V389.472C283.111 393.687 284.874 397.717 287.98 400.685C291.086 403.652 295.283 405.318 299.658 405.318C304.033 405.318 308.231 403.652 311.337 400.685C314.443 397.717 316.205 393.687 316.241 389.472V366.005L316.645 365.82C335.837 357.047 352.129 343.321 363.713 326.167C378.474 304.277 384.613 278.019 381.018 252.146C377.424 226.274 364.334 202.495 344.117 185.115L343.882 184.912V136.688C343.887 136.395 343.799 136.108 343.629 135.864C343.459 135.621 343.216 135.434 342.933 135.328C342.651 135.212 342.339 135.181 342.038 135.238C341.738 135.296 341.462 135.439 341.248 135.65L333.376 143.161V135.632C333.381 135.339 333.293 135.051 333.123 134.808C332.953 134.565 332.71 134.378 332.427 134.272C332.144 134.156 331.832 134.125 331.531 134.183C331.23 134.241 330.954 134.385 330.739 134.596L302.104 161.97L301.697 161.847C290.267 158.401 240.492 156.767 229.549 156.767C226.502 156.767 223.388 156.885 220.294 157.119C197.5 158.84 175.762 167.087 157.87 180.8C130.353 201.817 114.572 233.109 114.572 266.652C114.619 286.283 120.121 305.544 130.507 322.434C140.894 339.323 155.785 353.226 173.634 362.698L173.999 362.893V388.975C174.035 393.189 175.798 397.218 178.904 400.185C182.01 403.153 186.207 404.818 190.582 404.818C194.956 404.818 199.153 403.153 202.259 400.185C205.365 397.218 207.128 393.189 207.165 388.975V374.468L208.003 374.619C219.928 376.781 270.141 377.122 282.276 375.588L283.075 375.487Z" fill="#3F3D56"/>
<path d="M203.748 81.1838L125.403 103.866C122.911 104.59 120.82 106.237 119.588 108.446C118.356 110.655 118.085 113.245 118.834 115.646C119.583 118.048 121.291 120.064 123.583 121.254C125.875 122.443 128.562 122.707 131.056 121.988L199.616 102.134L201.052 101.719C201.343 94.5887 203.351 87.6216 206.917 81.3678C206.469 81.1738 205.991 81.054 205.502 81.0134C204.911 80.9583 204.315 81.0162 203.748 81.1838Z" fill="#3FB37F"/>
<path d="M129.701 126.823C128.661 126.821 127.648 126.504 126.805 125.917C125.963 125.329 125.333 124.502 125.005 123.551L120.106 109.31C119.901 108.715 119.82 108.087 119.868 107.462C119.915 106.837 120.089 106.228 120.381 105.668C120.673 105.108 121.077 104.609 121.569 104.199C122.061 103.789 122.632 103.477 123.249 103.28L187.014 82.9225C187.631 82.7254 188.283 82.6473 188.931 82.6927C189.58 82.7382 190.213 82.9063 190.794 83.1874C191.375 83.4685 191.893 83.8571 192.318 84.3311C192.744 84.8051 193.068 85.3552 193.273 85.9498L198.172 100.191C198.579 101.363 198.497 102.641 197.944 103.755C197.39 104.869 196.408 105.732 195.205 106.161C195.146 106.182 195.087 106.203 195.027 106.221L131.264 126.578C130.76 126.74 130.232 126.823 129.701 126.823Z" fill="#2F2E41"/>
<path d="M249.117 55.8916C236.248 55.8964 223.885 60.7252 214.646 69.356C205.407 77.9868 200.017 89.7423 199.616 102.134C199.602 102.618 199.595 103.109 199.595 103.6C199.595 113.035 202.499 122.259 207.941 130.105C213.382 137.95 221.117 144.065 230.166 147.676C239.215 151.287 249.172 152.232 258.778 150.391C268.385 148.55 277.209 144.006 284.135 137.334C291.061 130.662 295.777 122.161 297.688 112.907C299.599 103.652 298.618 94.06 294.87 85.3425C291.122 76.625 284.774 69.1741 276.63 63.9318C268.486 58.6896 258.912 55.8916 249.117 55.8916ZM249.117 149.944C236.362 149.932 224.134 145.045 215.115 136.356C206.096 127.668 201.023 115.887 201.01 103.6C201.01 102.966 201.024 102.339 201.052 101.718C201.435 92.6402 204.58 83.8707 210.095 76.5004C215.61 69.13 223.253 63.4841 232.072 60.2645C240.891 57.045 250.499 56.3939 259.699 58.3922C268.899 60.3905 277.287 64.9501 283.819 71.504C290.351 78.0579 294.739 86.3169 296.438 95.2541C298.136 104.191 297.071 113.412 293.373 121.771C289.675 130.129 283.509 137.256 275.64 142.265C267.772 147.274 258.548 149.945 249.117 149.944Z" fill="#3F3D56"/>
<path d="M290.857 103.6C290.857 114.264 286.46 124.492 278.632 132.033C270.804 139.574 260.187 143.81 249.117 143.81C238.047 143.81 227.43 139.574 219.602 132.033C211.774 124.492 207.377 114.264 207.377 103.6C207.377 102.325 207.44 101.071 207.561 99.8306C208.566 89.5381 213.649 80.0143 221.752 73.2365C229.855 66.4588 240.356 62.948 251.075 63.433C261.795 63.918 271.908 68.3616 279.316 75.8412C286.724 83.3207 290.857 93.2615 290.857 103.6Z" fill="#E6E6E6"/>
<path d="M261.547 106.271C260.535 104.99 259.204 103.975 257.677 103.32C255.794 102.556 253.849 101.94 251.862 101.48V90.5346C254.917 90.9782 257.781 92.2366 260.132 94.1672L262.439 89.4305C261.112 88.292 259.589 87.3856 257.939 86.752C256.11 86.0385 254.19 85.564 252.23 85.3412V79.7935H246.889V85.3957C244.826 85.6189 242.837 86.2625 241.052 87.2836C239.44 88.2027 238.083 89.4842 237.097 91.0185C236.156 92.5158 235.669 94.2367 235.689 95.9869C235.598 97.8835 236.168 99.7552 237.31 101.303C238.36 102.643 239.748 103.703 241.342 104.384C243.255 105.171 245.234 105.802 247.257 106.271V116.76C243.652 116.498 240.217 115.178 237.416 112.978L235.109 117.721C236.676 118.969 238.457 119.942 240.373 120.597C242.472 121.321 244.665 121.761 246.889 121.906V127.406H252.23V121.804C255.197 121.491 257.979 120.262 260.161 118.301C261.121 117.413 261.88 116.343 262.389 115.158C262.898 113.973 263.146 112.699 263.118 111.417C263.207 109.581 262.653 107.769 261.547 106.271ZM247.257 100.322C245.955 99.9414 244.746 99.3159 243.698 98.4813C243.283 98.1255 242.954 97.6855 242.737 97.1929C242.519 96.7004 242.417 96.1675 242.439 95.6325C242.4 94.4186 242.863 93.2396 243.726 92.3543C244.683 91.4255 245.917 90.8083 247.257 90.5891V100.322ZM255.216 114.825C254.313 115.716 253.138 116.306 251.862 116.508V107.485C253.081 107.8 254.222 108.349 255.216 109.1C255.592 109.41 255.891 109.797 256.091 110.234C256.291 110.67 256.385 111.145 256.369 111.621C256.418 112.791 256.006 113.935 255.216 114.825Z" fill="#3FB37F"/>
<path d="M131.975 184.542C130.881 184.541 129.819 184.191 128.952 183.549C128.085 182.906 127.463 182.006 127.182 180.988L124.514 171.262C124.181 170.04 124.364 168.739 125.024 167.647C125.683 166.554 126.766 165.759 128.034 165.434L212.18 144.013C213.45 143.694 214.799 143.872 215.933 144.509C217.067 145.146 217.893 146.189 218.23 147.411L220.489 155.651L220.066 155.682C198.485 157.299 177.836 164.837 160.563 177.404L160.44 177.461L133.231 184.385C132.821 184.49 132.399 184.542 131.975 184.542Z" fill="#2F2E41"/>
<path d="M118.039 232.582C108.168 231.177 98.7275 227.738 90.3611 222.5C86.2162 219.907 82.3791 216.884 78.9186 213.485C75.5031 210.129 72.2356 206.314 70.5438 201.845C68.9161 197.709 69 193.13 70.7782 189.053C72.5321 185 75.8824 181.783 80.0946 180.107C84.332 178.479 89.4516 178.305 93.5756 180.088C95.5407 180.917 97.2413 182.236 98.5026 183.908C99.0889 184.679 99.523 185.547 99.7833 186.47C100.025 187.305 100.047 188.186 99.8472 189.032C99.6054 189.876 99.1789 190.661 98.5965 191.334C98.014 192.006 97.2889 192.551 96.4699 192.932C94.6674 193.823 92.7143 194.397 90.7026 194.627C88.6791 194.892 85.7725 195.134 84.1458 193.57C83.811 193.26 83.5476 192.886 83.3728 192.472C83.2506 192.155 83.2087 191.814 83.2509 191.478C83.2271 191.626 83.349 191.156 83.3421 191.175C83.3163 191.244 83.2049 191.414 83.3633 191.153C83.4128 191.068 83.4679 190.985 83.5282 190.906C83.4745 190.973 83.3564 191.085 83.5672 190.893C83.7415 190.709 83.9655 190.576 84.2141 190.508C84.312 190.481 84.4113 190.459 84.5095 190.433C84.7591 190.367 84.2607 190.437 84.5161 190.429C84.6146 190.426 84.7143 190.428 84.8125 190.424C85.0629 190.413 84.5654 190.358 84.8054 190.416C84.8986 190.439 84.991 190.461 85.0828 190.489C85.2823 190.549 84.9414 190.348 85.0767 190.499C85.2352 190.675 84.9103 190.327 85.0904 190.498C85.18 190.583 85.2645 190.672 85.3434 190.766C85.6558 191.064 86.0771 191.23 86.5161 191.23C86.955 191.23 87.3763 191.064 87.6887 190.766C87.9904 190.462 88.1588 190.058 88.1588 189.637C88.1588 189.216 87.9904 188.811 87.6887 188.507C86.0535 186.554 82.8234 187.037 81.1692 188.687C79.0596 190.792 79.895 194.128 81.9471 195.965C84.2702 198.044 87.5604 198.189 90.5487 197.84C93.0741 197.607 95.5352 196.937 97.8137 195.862C100.078 194.79 101.848 192.947 102.783 190.69C103.205 189.486 103.356 188.209 103.228 186.943C103.099 185.678 102.692 184.454 102.036 183.351C99.3972 178.572 93.9341 176.123 88.5341 175.698C85.7539 175.488 82.9582 175.812 80.3086 176.65C77.659 177.488 75.2083 178.824 73.0981 180.58C69.0309 184.107 66.5264 189.006 66.1026 194.262C65.6312 199.712 67.826 205.004 71.026 209.402C74.3759 213.871 78.3736 217.853 82.8968 221.229C91.7397 228.03 102.112 232.743 113.185 234.99C114.502 235.252 115.826 235.476 117.157 235.663C117.58 235.762 118.027 235.701 118.406 235.494C118.785 235.287 119.068 234.948 119.197 234.547C119.31 234.139 119.253 233.703 119.036 233.336C118.819 232.968 118.461 232.697 118.039 232.582L118.039 232.582Z" fill="#3F3D56"/>
<path d="M276.075 163.149C261.613 162.952 247.197 163.306 232.826 164.21C227.914 164.519 223.664 166.191 223.664 169.002C223.664 171.353 227.88 174.106 232.826 173.795C247.19 172.891 261.606 172.538 276.075 172.734C287.871 172.895 287.864 163.309 276.075 163.149Z" fill="#CCCCCC"/>
<path d="M254.7 172.259C253.137 172.259 216.422 172.203 216.422 167.317C216.422 162.432 253.137 162.376 254.7 162.376C256.263 162.376 292.978 162.432 292.978 167.317C292.978 172.203 256.263 172.259 254.7 172.259ZM217.858 167.317C218.863 168.799 232.358 170.896 254.7 170.896C277.042 170.896 290.537 168.799 291.542 167.317C290.538 165.837 277.042 163.739 254.7 163.739C232.358 163.739 218.863 165.837 217.858 167.318V167.317Z" fill="#3F3D56"/>
<path d="M371.187 300.696C379.314 300.479 389.429 300.207 397.222 294.723C399.542 293.023 401.449 290.855 402.808 288.37C404.167 285.886 404.946 283.145 405.089 280.34C405.248 276.009 403.624 272.229 400.516 269.698C396.446 266.385 390.502 265.608 384.097 267.421L390.733 220.703L385.862 220.06L378.061 274.983L382.129 273.185C386.845 271.101 393.319 270.041 397.342 273.316C398.33 274.172 399.099 275.236 399.591 276.426C400.082 277.615 400.282 278.898 400.176 280.174C400.056 282.261 399.472 284.3 398.462 286.15C397.451 288.001 396.039 289.62 394.321 290.897C388.257 295.165 380.194 295.715 371.05 295.961L371.187 300.696Z" fill="#3F3D56"/>
<path d="M357.718 224.732H331.236V229.469H357.718V224.732Z" fill="#3F3D56"/>
<path d="M143.958 206.329C142.779 206.325 141.641 205.917 140.746 205.178C139.851 204.439 139.258 203.417 139.074 202.296L137.457 192.358C137.256 191.108 137.577 189.832 138.35 188.81C139.124 187.788 140.286 187.103 141.583 186.906L227.562 173.927C228.86 173.733 230.184 174.042 231.245 174.787C232.306 175.533 233.017 176.653 233.221 177.902L234.838 187.84C235.04 189.09 234.719 190.366 233.945 191.388C233.172 192.411 232.009 193.095 230.712 193.292L144.733 206.27C144.477 206.309 144.218 206.328 143.958 206.329Z" fill="#2F2E41"/>
<path d="M108.376 89.8645C128.303 89.8645 144.456 74.3025 144.456 55.1058C144.456 35.9091 128.303 20.3472 108.376 20.3472C88.449 20.3472 72.2952 35.9091 72.2952 55.1058C72.2952 74.3025 88.449 89.8645 108.376 89.8645Z" fill="#3FB37F"/>
<path d="M128.804 64.0997C129.957 63.7111 131.01 63.0892 131.893 62.2758C132.477 61.6958 132.923 60.9998 133.198 60.2366C133.474 59.4734 133.573 58.6613 133.488 57.8573C133.439 57.2843 133.253 56.73 132.945 56.2377C132.637 55.7453 132.215 55.3284 131.711 55.0193C130.405 54.2457 128.68 54.275 126.938 55.0529L126.737 41.4849L125.322 41.5043L125.559 57.4549L126.636 56.7745C127.884 55.9867 129.679 55.4154 130.97 56.1804C131.289 56.383 131.556 56.6537 131.749 56.9716C131.942 57.2896 132.056 57.6461 132.083 58.0135C132.142 58.6124 132.067 59.2167 131.862 59.7852C131.658 60.3536 131.328 60.873 130.897 61.3078C129.363 62.7739 127.093 63.2651 124.502 63.7144L124.753 65.0558C126.13 64.8543 127.486 64.5343 128.804 64.0997Z" fill="#2F2E41"/>
<path d="M141.306 40.5326L133.772 41.6318L133.984 42.9794L141.518 41.8801L141.306 40.5326Z" fill="#2F2E41"/>
<path d="M117.524 44.0013L109.989 45.1006L110.201 46.4481L117.736 45.3489L117.524 44.0013Z" fill="#2F2E41"/>
<path d="M132.219 205.721C130.922 205.718 129.656 205.335 128.59 204.622C127.524 203.909 126.709 202.9 126.252 201.73L101.376 137.55C98.3352 129.679 98.6599 120.967 102.279 113.326C105.897 105.685 112.514 99.7389 120.678 96.7923L140.906 89.516C141.688 89.2327 142.521 89.1012 143.356 89.1292C144.191 89.1571 145.012 89.3439 145.772 89.6787C146.53 90.005 147.213 90.4735 147.781 91.057C148.349 91.6404 148.79 92.3271 149.079 93.0768L195.161 176.895C195.46 177.651 195.601 178.457 195.576 179.265C195.551 180.074 195.36 180.869 195.014 181.607C194.669 182.344 194.175 183.008 193.562 183.561C192.949 184.113 192.229 184.544 191.442 184.827L134.445 205.331C133.733 205.588 132.979 205.72 132.219 205.721Z" fill="#2F2E41"/>
<path d="M134.769 91.7239L180.491 150.627L149.553 92.3421C149.297 91.662 148.905 91.0371 148.399 90.5031C147.893 89.969 147.282 89.5363 146.602 89.2296C145.922 88.9229 145.187 88.7482 144.437 88.7156C143.687 88.6829 142.937 88.793 142.231 89.0393L134.769 91.7239Z" fill="#E6E6E6"/>
<path d="M207.165 136.456L125.527 131.39C124.24 131.311 122.982 130.987 121.825 130.439C120.668 129.891 119.634 129.129 118.783 128.196C117.932 127.263 117.28 126.177 116.864 125.001C116.448 123.826 116.276 122.582 116.359 121.343C116.442 120.103 116.778 118.891 117.347 117.776C117.916 116.662 118.707 115.666 119.676 114.846C120.644 114.026 121.771 113.397 122.991 112.997C124.212 112.596 125.503 112.431 126.789 112.511L208.427 117.576C209.03 117.614 209.619 117.765 210.161 118.022C210.703 118.278 211.187 118.635 211.586 119.072C211.984 119.509 212.29 120.018 212.484 120.568C212.679 121.119 212.759 121.701 212.721 122.282L212.05 132.32C211.971 133.493 211.412 134.587 210.496 135.363C209.58 136.139 208.382 136.532 207.165 136.456Z" fill="#3FB37F"/>
<path d="M185.35 139.704C185.242 139.704 185.134 139.701 185.026 139.694H185.026L117.989 135.534C117.34 135.494 116.706 135.331 116.122 135.055C115.539 134.778 115.017 134.394 114.588 133.923C114.159 133.453 113.83 132.905 113.62 132.312C113.41 131.719 113.324 131.092 113.366 130.467L114.512 113.321C114.554 112.696 114.723 112.084 115.01 111.522C115.297 110.96 115.696 110.458 116.185 110.044C116.673 109.631 117.241 109.314 117.857 109.112C118.473 108.91 119.124 108.826 119.773 108.867L186.809 113.026C188.119 113.109 189.341 113.689 190.208 114.639C191.075 115.589 191.515 116.831 191.432 118.094L190.286 135.24C190.223 136.159 189.886 137.041 189.316 137.779C188.745 138.518 187.965 139.083 187.07 139.405C186.52 139.603 185.937 139.705 185.35 139.704Z" fill="#2F2E41"/>
<path d="M107.962 31.9919C112.709 28.0592 119.227 31.5773 124.67 30.9614C129.878 30.3722 133.99 25.872 135.04 21.0911C136.266 15.5133 133.261 9.92524 128.831 6.44762C123.98 2.63877 117.546 1.54534 111.449 2.25C104.461 3.05763 98.0697 6.19569 92.3352 9.99132C86.7999 13.5416 81.7097 17.6969 77.166 22.3744C73.0973 26.7033 69.6501 31.8633 68.5493 37.6885C67.549 42.9823 68.3128 48.8487 71.5613 53.3334C73.2839 55.6319 75.5924 57.4641 78.264 58.653C81.0495 59.9707 84.021 60.9127 86.7197 62.4026C90.8001 64.6553 94.766 69.3263 93.4878 74.1871C93.2138 75.249 92.673 76.2296 91.913 77.0428C90.9999 78.0193 89.3529 76.7289 90.2684 75.7498C91.8763 74.0303 91.813 71.737 90.9561 69.684C89.9371 67.3705 88.1328 65.4591 85.8387 64.2628C83.0138 62.7069 79.895 61.7465 76.9996 60.3292C74.2284 59.0346 71.8228 57.1141 69.9877 54.7312C66.5224 50.0919 65.4858 44.0542 66.2717 38.4689C67.1222 32.4247 70.3458 26.9323 74.3868 22.3297C78.7845 17.3207 84.1865 13.0808 89.7051 9.27174C95.6266 5.18463 102.169 1.72927 109.408 0.479519C115.683 -0.603819 122.485 0.0631523 127.973 3.35762C133.095 6.4328 137.023 11.7227 137.413 17.6337C137.554 20.3231 136.947 23 135.657 25.3889C134.367 27.7777 132.439 29.7922 130.073 31.225C127.644 32.625 124.821 33.2552 122 33.0266C118.986 32.8407 115.968 31.9513 112.934 32.1982C111.561 32.2785 110.252 32.7878 109.207 33.6488C108.17 34.5081 106.934 32.8441 107.962 31.9919V31.9919Z" fill="#2F2E41"/>
<path d="M523.158 407H0.842369C0.619383 406.999 0.405756 406.914 0.248309 406.761C0.0908618 406.609 0.00244141 406.403 0.00244141 406.188C0.00244141 405.974 0.0908618 405.768 0.248309 405.615C0.405756 405.463 0.619383 405.378 0.842369 405.377H523.158C523.381 405.377 523.595 405.462 523.753 405.615C523.911 405.767 524 405.973 524 406.188C524 406.404 523.911 406.61 523.753 406.762C523.595 406.914 523.381 407 523.158 407Z" fill="#3F3D56"/>
</g>
<defs>
<clipPath id="clip0_469_808">
<rect width="524" height="407" fill="white"/>
</clipPath>
</defs>
</svg>
