<?xml version="1.0" ?>
<!-- Uploaded to: SVG Repo, www.svgrepo.com, Generator: SVG Repo Mixer Tools -->
<svg width="800px" height="800px" viewBox="0 0 512 512" id="Shop" version="1.1" xml:space="preserve" xmlns="http://www.w3.org/2000/svg" xmlns:xlink="http://www.w3.org/1999/xlink">
<style type="text/css">
	.st0{fill:#A8B2B4;}
	.st1{fill:#D3D9D9;}
	.st2{fill:#7C8B8E;}
	.st3{fill:#EDEDED;}
	.st4{fill:#FFFFFF;}
	.st5{fill:#FC8A8A;}
	.st6{fill:#FCB0B0;}
	.st7{fill:#F96364;}
	.st8{fill:#7AD2FA;}
	.st9{fill:#333333;}
	.st10{fill:#7BDE9E;}
	.st11{fill:#FEDD8E;}
	.st12{fill:#A7EABF;}
	.st13{fill:#FEE9B4;}
	.st14{fill:#51D27F;}
	.st15{fill:#FDD367;}
</style>
<g>
<g>
<rect class="st0" height="24.4" width="460.1" x="26" y="448.1"/>
</g>
<g>
<rect class="st1" height="24.4" width="460.1" x="26" y="448.1"/>
</g>
<g>
<rect class="st0" height="24.4" width="504.1" x="3.9" y="472.5"/>
</g>
<g>
<rect class="st1" height="24.4" width="30.3" x="3.9" y="472.5"/>
</g>
<g>
<rect class="st2" height="24.4" width="30.3" x="477.7" y="472.5"/>
</g>
<g>
<rect class="st3" height="24.4" width="26.9" x="26" y="448.1"/>
</g>
<g>
<rect class="st0" height="24.4" width="26.9" x="459.1" y="448.1"/>
</g>
<rect class="st4" height="364.9" width="433.2" x="39.4" y="83.2"/>
<g>
<path class="st5" d="M472.6,25.7V66H39.4V25.7c0-5.8,5.7-10.6,12.8-10.6h407.5C466.8,15.1,472.6,19.8,472.6,25.7z"/>
</g>
<g>
<path class="st6" d="M76.9,15.1c-7.1,0-12.8,4.7-12.8,10.6V66H39.4V25.7c0-5.8,5.7-10.6,12.8-10.6H76.9z"/>
</g>
<g>
<path class="st7" d="M472.6,25.7V66H448V25.7c0-5.8-5.7-10.6-12.8-10.6h24.6C466.8,15.1,472.6,19.8,472.6,25.7z"/>
</g>
<g>
<rect class="st8" height="220.2" width="127.8" x="319.6" y="228"/>
</g>
<g>
<rect class="st8" height="185.9" width="229.8" x="64.6" y="228"/>
</g>
<g>
<g>
<polygon class="st0" points="294.4,312 294.4,329.8 188.4,329.8 188.4,413.8 170.6,413.8 170.6,329.8 64.6,329.8 64.6,312      170.6,312 170.6,228 188.4,228 188.4,312    "/>
</g>
<path class="st9" d="M294.4,224H64.6c-2.2,0-3.9,1.8-3.9,3.9v185.9c0,2.2,1.8,3.9,3.9,3.9h105.9c0,0,0,0,0.1,0h17.8c0,0,0,0,0.1,0    h105.9c2.2,0,3.9-1.8,3.9-3.9V228C298.4,225.8,296.6,224,294.4,224z M290.5,308.1h-98.1v-76.2h98.1V308.1z M184.5,329.8v80.1h-9.9    v-80.1c0-2.2-1.8-3.9-3.9-3.9h-102v-9.9h102c2.2,0,3.9-1.8,3.9-3.9v-80.1h9.9V312c0,2.2,1.8,3.9,3.9,3.9h102v9.9h-102    C186.2,325.9,184.5,327.6,184.5,329.8z M166.7,231.9v76.2H68.6v-76.2H166.7z M68.6,333.7h98.1v76.2H68.6V333.7z M192.4,409.9    v-76.2h98.1v76.2H192.4z"/>
</g>
<g>
<g>
<g>
<path class="st10" d="M78.8,155.7h70.9v14.8c0,9.8-4,18.7-10.4,25c-6.4,6.4-15.2,10.4-25,10.4c-19.6,0-35.4-15.9-35.4-35.4      V155.7z"/>
</g>
<g>
<path class="st10" d="M433.2,155.7v14.8c0,9.8-4,18.7-10.4,25c-6.4,6.4-15.2,10.4-25,10.4c-19.6,0-35.4-15.9-35.4-35.4v-14.8      H433.2z"/>
</g>
<g>
<path class="st10" d="M220.6,155.7h70.9v14.8c0,9.8-4,18.7-10.4,25c-6.4,6.4-15.2,10.4-25,10.4c-19.6,0-35.4-15.9-35.4-35.4      V155.7z"/>
</g>
<g>
<path class="st11" d="M7.9,155.7h70.9v14.8c0,9.8-4,18.7-10.4,25C62,202,53.1,206,43.3,206c-19.6,0-35.4-15.9-35.4-35.4V155.7z"/>
</g>
<g>
<path class="st11" d="M291.4,155.7h70.9v14.8c0,9.8-4,18.7-10.4,25c-6.4,6.4-15.2,10.4-25,10.4c-19.6,0-35.4-15.9-35.4-35.4      V155.7z"/>
</g>
<g>
<path class="st11" d="M149.7,155.7h70.9v14.8c0,9.8-4,18.7-10.4,25c-6.4,6.4-15.2,10.4-25,10.4c-19.6,0-35.4-15.9-35.4-35.4      V155.7z"/>
</g>
<g>
<path class="st11" d="M504.1,155.7v14.8c0,9.8-4,18.7-10.4,25c-6.4,6.4-15.2,10.4-25,10.4c-19.6,0-35.4-15.9-35.4-35.4v-14.8      H504.1z"/>
</g>
</g>
<g>
<g>
<polygon class="st11" points="101.3,66 78.8,155.7 7.9,155.7 39.4,66     "/>
</g>
<g>
<polygon class="st10" points="163.2,66 149.7,155.7 78.8,155.7 101.3,66     "/>
</g>
<g>
<polygon class="st11" points="225.1,66 220.6,155.7 149.7,155.7 163.2,66     "/>
</g>
<g>
<polygon class="st10" points="286.9,66 291.4,155.7 220.6,155.7 225.1,66     "/>
</g>
<g>
<polygon class="st11" points="348.8,66 362.3,155.7 291.4,155.7 286.9,66     "/>
</g>
<g>
<polygon class="st10" points="410.7,66 433.2,155.7 362.3,155.7 348.8,66     "/>
</g>
<g>
<polygon class="st11" points="472.6,66 504.1,155.7 433.2,155.7 410.7,66     "/>
</g>
</g>
</g>
<g>
<g>
<g>
<path class="st12" d="M122.8,204.9c-2.7,0.7-5.6,1-8.6,1c-19.6,0-35.4-15.9-35.4-35.4v-14.8h17.1v14.8      C95.9,187.1,107.4,201.1,122.8,204.9z"/>
</g>
<g>
<path class="st12" d="M406.4,204.9c-2.7,0.7-5.6,1-8.6,1c-19.6,0-35.4-15.9-35.4-35.4v-14.8h17.1v14.8      C379.5,187.1,390.9,201.1,406.4,204.9z"/>
</g>
<g>
<path class="st12" d="M264.6,204.9c-2.7,0.7-5.6,1-8.6,1c-19.6,0-35.4-15.9-35.4-35.4v-14.8h17.1v14.8      C237.7,187.1,249.2,201.1,264.6,204.9z"/>
</g>
<g>
<path class="st13" d="M51.9,204.9c-2.7,0.7-5.6,1-8.6,1c-19.6,0-35.4-15.9-35.4-35.4v-14.8H25v14.8      C25,187.1,36.5,201.1,51.9,204.9z"/>
</g>
<g>
<path class="st13" d="M335.5,204.9c-2.7,0.7-5.6,1-8.6,1c-19.6,0-35.4-15.9-35.4-35.4v-14.8h17.1v14.8      C308.6,187.1,320,201.1,335.5,204.9z"/>
</g>
<g>
<path class="st13" d="M193.7,204.9c-2.7,0.7-5.6,1-8.6,1c-19.6,0-35.4-15.9-35.4-35.4v-14.8h17.1v14.8      C166.8,187.1,178.3,201.1,193.7,204.9z"/>
</g>
<g>
<path class="st13" d="M477.3,204.9c-2.7,0.7-5.6,1-8.6,1c-19.6,0-35.4-15.9-35.4-35.4v-14.8h17.1v14.8      C450.4,187.1,461.8,201.1,477.3,204.9z"/>
</g>
</g>
<g>
<g>
<polygon class="st13" points="56.6,66 25,155.7 7.9,155.7 39.4,66     "/>
</g>
<g>
<polygon class="st12" points="118.4,66 95.9,155.7 95.9,155.7 78.8,155.7 78.8,155.7 101.3,66     "/>
</g>
<g>
<polygon class="st13" points="180.3,66 166.8,155.7 149.7,155.7 163.2,66     "/>
</g>
<g>
<polygon class="st12" points="242.2,66 237.7,155.7 220.6,155.7 225.1,66     "/>
</g>
<g>
<polygon class="st13" points="308.6,155.7 291.5,155.7 286.9,66 304.1,66     "/>
</g>
<g>
<polygon class="st12" points="379.5,155.7 362.3,155.7 348.8,66 366,66     "/>
</g>
<g>
<polygon class="st13" points="450.4,155.7 433.2,155.7 410.7,66 427.8,66     "/>
</g>
</g>
</g>
<g>
<g>
<g>
<path class="st14" d="M149.7,155.7v14.8c0,9.8-4,18.7-10.4,25c-6.4,6.4-15.2,10.4-25,10.4c-3,0-5.8-0.4-8.5-1      c6.3-1.6,12-4.9,16.5-9.4c6.4-6.4,10.4-15.3,10.4-25v-14.8H149.7z"/>
</g>
<g>
<path class="st14" d="M433.2,155.7v14.8c0,9.8-4,18.7-10.4,25c-6.4,6.4-15.2,10.4-25,10.4c-3,0-5.8-0.4-8.5-1      c6.3-1.6,12-4.9,16.5-9.4c6.4-6.4,10.4-15.3,10.4-25v-14.8H433.2z"/>
</g>
<g>
<path class="st14" d="M291.4,155.7v14.8c0,9.8-4,18.7-10.4,25c-6.4,6.4-15.2,10.4-25,10.4c-3,0-5.8-0.4-8.5-1      c6.3-1.6,12-4.9,16.5-9.4c6.4-6.4,10.4-15.3,10.4-25v-14.8H291.4z"/>
</g>
<g>
<path class="st15" d="M78.8,155.7v14.8c0,9.8-4,18.7-10.4,25C62,202,53.1,206,43.3,206c-3,0-5.8-0.4-8.5-1      c6.3-1.6,12-4.9,16.5-9.4c6.4-6.4,10.4-15.3,10.4-25v-14.8H78.8z"/>
</g>
<g>
<path class="st15" d="M362.3,155.7v14.8c0,9.8-4,18.7-10.4,25c-6.4,6.4-15.2,10.4-25,10.4c-3,0-5.8-0.4-8.5-1      c6.3-1.6,12-4.9,16.5-9.4c6.4-6.4,10.4-15.3,10.4-25v-14.8H362.3z"/>
</g>
<g>
<path class="st15" d="M220.6,155.7v14.8c0,9.8-4,18.7-10.4,25c-6.4,6.4-15.2,10.4-25,10.4c-3,0-5.8-0.4-8.5-1      c6.3-1.6,12-4.9,16.5-9.4c6.4-6.4,10.4-15.3,10.4-25v-14.8H220.6z"/>
</g>
<g>
<path class="st15" d="M504.1,155.7v14.8c0,9.8-4,18.7-10.4,25c-6.4,6.4-15.2,10.4-25,10.4c-3,0-5.8-0.4-8.5-1      c6.3-1.6,12-4.9,16.5-9.4c6.4-6.4,10.4-15.3,10.4-25v-14.8H504.1z"/>
</g>
</g>
<g>
<g>
<polygon class="st15" points="101.3,66 78.8,155.7 61.6,155.7 84.2,66     "/>
</g>
<g>
<polygon class="st14" points="163.2,66 149.7,155.7 149.7,155.7 132.5,155.7 132.5,155.7 146,66     "/>
</g>
<g>
<polygon class="st15" points="225.1,66 220.6,155.7 203.4,155.7 207.9,66     "/>
</g>
<g>
<polygon class="st14" points="291.4,155.7 274.3,155.7 269.8,66 287,66     "/>
</g>
<g>
<polygon class="st15" points="362.3,155.7 345.2,155.7 331.7,66 348.8,66     "/>
</g>
<g>
<polygon class="st14" points="433.2,155.7 416.1,155.7 393.6,66 410.7,66     "/>
</g>
<g>
<polygon class="st15" points="504.1,155.7 487,155.7 455.4,66 472.6,66     "/>
</g>
</g>
</g>
<path class="st9" d="M508.1,468.6H490v-20.4c0-2.2-1.8-3.9-3.9-3.9h-9.5v-235c7.5-1.5,14.4-5.2,20-10.8   c7.5-7.4,11.6-17.3,11.6-27.8v-14.8c0-0.1,0-0.1,0-0.2c0-0.4-0.1-0.8-0.2-1.1l-0.1-0.2c0,0,0,0,0,0l-31.2-88.9V25.7   c0-8-7.5-14.5-16.8-14.5H52.3c-9.2,0-16.8,6.5-16.8,14.5v39.6L4.2,154.4C4,154.8,4,155.2,4,155.6c0,0,0,0.1,0,0.1v14.8   c0,19,13.6,34.9,31.5,38.6v235H26c-2.2,0-3.9,1.8-3.9,3.9v20.4H3.9c-2.2,0-3.9,1.8-3.9,3.9v24.4c0,2.2,1.8,3.9,3.9,3.9h504.1   c2.2,0,3.9-1.8,3.9-3.9v-24.4C512,470.3,510.2,468.6,508.1,468.6z M500.2,170.5c0,8.4-3.3,16.3-9.2,22.3c-6,6-13.9,9.2-22.3,9.2   c-17.4,0-31.5-14.1-31.5-31.5v-10.9h63V170.5z M447.4,224H319.6c-2.2,0-3.9,1.8-3.9,3.9v216.2H43.4V209.9   c10.5,0,20.4-4.1,27.8-11.5c3.2-3.2,5.7-6.8,7.6-10.8c6.4,13.2,19.8,22.3,35.4,22.3c10.5,0,20.4-4.1,27.8-11.5   c3.2-3.2,5.7-6.8,7.6-10.8c6.4,13.2,19.8,22.3,35.4,22.3c10.5,0,20.4-4.1,27.8-11.5c3.2-3.2,5.7-6.8,7.6-10.8   c6.4,13.2,19.8,22.3,35.4,22.3c10.5,0,20.4-4.1,27.8-11.5c3.2-3.2,5.7-6.8,7.6-10.8c6.4,13.2,19.8,22.3,35.4,22.3   c10.5,0,20.4-4.1,27.8-11.5c3.2-3.2,5.7-6.8,7.6-10.8c6.4,13.2,19.8,22.3,35.4,22.3c10.5,0,20.4-4.1,27.8-11.5   c3.2-3.2,5.7-6.8,7.6-10.8c6.4,13.2,19.8,22.3,35.4,22.3v234.2h-17.3V228C451.3,225.8,449.6,224,447.4,224z M323.6,334.1V231.9   h119.9v102.2H323.6z M443.4,342v102.2H323.6V342H443.4z M154.2,151.8l12.3-81.9h54.3l-0.2,4.8l-3.9,77.1H154.2z M216.6,159.6v10.9   c0,8.4-3.3,16.3-9.2,22.3c-6,6-13.9,9.2-22.3,9.2c-17.4,0-31.5-14.1-31.5-31.5v-10.9H216.6z M146.3,151.8H83.8l20.5-81.9h54.2   L146.3,151.8z M145.7,159.6v10.9c0,8.4-3.3,16.3-9.2,22.3c-6,6-13.9,9.2-22.3,9.2c-17.4,0-31.5-14.1-31.5-31.5v-10.9H145.7z    M287.5,159.6v10.9c0,8.4-3.3,16.3-9.2,22.3c-6,6-13.9,9.2-22.3,9.2c-17.4,0-31.5-14.1-31.5-31.5v-10.9H287.5z M224.7,151.8   l0.2-4.8l3.9-77.1h54.4l3.1,62.3l1,19.5H224.7z M365.7,151.8l-12.3-81.9h54.2l20.5,81.9H365.7z M429.3,159.6v10.9   c0,8.4-3.3,16.3-9.2,22.3c-6,6-13.9,9.2-22.3,9.2c-17.4,0-31.5-14.1-31.5-31.5v-10.9H429.3z M357.8,151.8h-62.6l-3.1-62.3l-1-19.5   h54.3L357.8,151.8z M358.4,159.6v10.9c0,8.4-3.3,16.3-9.2,22.3c-6,6-13.9,9.2-22.3,9.2c-17.4,0-31.5-14.1-31.5-31.5v-10.9H358.4z    M498.6,151.8h-62.3l-20.5-81.9h54L498.6,151.8z M43.4,25.7c0-3.6,4.1-6.6,8.9-6.6h407.5c4.8,0,8.9,3,8.9,6.6V62H43.4V25.7z    M42.2,69.9h54l-20.5,81.9H13.4L42.2,69.9z M11.8,170.5v-10.9h63v10.9c0,8.4-3.3,16.3-9.2,22.3c-6,6-13.9,9.2-22.3,9.2   C26,202,11.8,187.9,11.8,170.5z M29.9,452h452.2v16.5H29.9V452z M504.1,493H7.9v-16.5h496.2V493z"/>
</g>
</svg>